<svg width="307" height="274" viewBox="0 0 307 274" fill="none" xmlns="http://www.w3.org/2000/svg">
<path opacity="0.4" d="M33.2799 252.614C33.0914 252.818 32.9106 253.024 32.7273 253.228C27.3205 259.336 24.6791 266.635 25.1516 273.65H25.9752C25.5027 266.856 28.0409 259.782 33.2799 253.842C38.5111 259.771 41.0596 266.856 40.5871 273.65H41.4108C41.8833 266.629 39.2393 259.336 33.8324 253.228C33.6569 253.024 33.4735 252.818 33.2799 252.614ZM-36.7764 272.789C-36.0121 273.041 -35.2478 273.328 -34.4835 273.65H-32.4902C-33.8761 272.973 -35.3085 272.396 -36.7764 271.922V272.789ZM-36.2445 -17.1249C-36.2626 -17.3827 -36.291 -17.6276 -36.3116 -17.8777C-36.0844 -17.9834 -35.8494 -18.0865 -35.6248 -18.1948C-34.4732 -18.7551 -33.3767 -19.3567 -32.3352 -19.9995H-33.9645C-34.6204 -19.636 -35.2891 -19.2828 -35.9837 -18.9451L-36.3916 -18.7568C-36.4381 -19.1694 -36.4923 -19.5844 -36.5491 -19.9995H-36.7764V-7.66295C-36.1741 -10.7787 -35.9935 -13.9611 -36.2393 -17.1249H-36.2445ZM154.231 252.614C154.045 252.818 153.862 253.024 153.681 253.228C148.259 259.336 145.63 266.635 146.103 273.65H146.926C146.454 266.856 148.992 259.782 154.231 253.842C159.462 259.771 162.011 266.856 161.538 273.65H162.362C162.834 266.629 160.193 259.336 154.784 253.228C154.608 253.024 154.425 252.818 154.236 252.614H154.231ZM342.948 273.65C343.712 273.328 344.477 273.041 345.241 272.789V271.922C343.773 272.396 342.341 272.973 340.955 273.65H342.948ZM335.664 -2.10955C335.458 -2.25393 335.254 -2.40605 335.047 -2.54785C332.249 -4.46957 329.188 -5.97789 325.958 -7.02614C326.664 -10.343 326.886 -13.7445 326.617 -17.1249C326.599 -17.3827 326.57 -17.6276 326.547 -17.8777C326.777 -17.9834 327.009 -18.0865 327.236 -18.1948C328.388 -18.7551 329.484 -19.3567 330.523 -19.9995H328.894C328.241 -19.636 327.572 -19.2828 326.877 -18.9451C326.743 -18.8806 326.604 -18.8213 326.467 -18.7568C326.423 -19.1694 326.366 -19.5844 326.309 -19.9995H325.48C325.555 -19.4607 325.622 -18.9244 325.677 -18.3933C317.804 -14.869 307.69 -13.0694 295.58 -13.0462C294.15 -15.5109 292.687 -17.8313 291.191 -20.0073H290.199C291.786 -17.7178 293.342 -15.2617 294.865 -12.6388C288.841 -2.17143 285.311 7.48642 284.379 16.0975C284.243 16.0331 284.103 15.9738 283.969 15.9093C280.992 14.4953 278.235 12.6615 275.781 10.4642C278.257 8.11787 280.224 5.28987 281.562 2.15475C284.521 -4.90945 283.785 -12.8889 279.796 -20.0176H278.849C282.913 -13.0152 283.718 -5.1286 280.806 1.82732C279.503 4.8719 277.589 7.61747 275.182 9.89444C272.774 7.61743 270.86 4.87191 269.556 1.82732C266.646 -5.13376 267.449 -13.0152 271.516 -20.0176H270.571C266.581 -12.8992 265.848 -4.91977 268.804 2.15475C270.144 5.28934 272.111 8.11715 274.586 10.4642C272.133 12.6627 269.375 14.4965 266.398 15.9093L265.99 16.0975C265.05 7.48642 261.528 -2.17143 255.502 -12.6388C257.025 -15.2617 258.581 -17.7178 260.17 -20.0073H259.176C257.687 -17.833 256.224 -15.5126 254.786 -13.0462C242.677 -13.0694 232.563 -14.869 224.693 -18.3933C224.748 -18.9244 224.812 -19.4598 224.886 -19.9995H224.057C224.001 -19.5844 223.944 -19.1694 223.9 -18.7568C223.766 -18.8213 223.624 -18.8806 223.492 -18.9451C222.797 -19.2828 222.126 -19.636 221.473 -19.9995H219.844C220.887 -19.3653 221.983 -18.7637 223.133 -18.1948C223.358 -18.0865 223.593 -17.9834 223.82 -17.8777C223.799 -17.6199 223.768 -17.3749 223.75 -17.1249C223.481 -13.7444 223.704 -10.3429 224.411 -7.02614C221.181 -5.97893 218.12 -4.47054 215.322 -2.54785C215.116 -2.40605 214.909 -2.25393 214.703 -2.10955C214.496 -2.25393 214.292 -2.40605 214.083 -2.54785C211.286 -4.47054 208.224 -5.97893 204.994 -7.02614C205.702 -10.3428 205.925 -13.7444 205.655 -17.1249C205.637 -17.3827 205.609 -17.6276 205.585 -17.8777C205.815 -17.9834 206.048 -18.0865 206.272 -18.1948C207.424 -18.7551 208.52 -19.3567 209.562 -19.9995H207.932C207.279 -19.636 206.608 -19.2828 205.916 -18.9451C205.782 -18.8806 205.64 -18.8213 205.505 -18.7568C205.462 -19.1694 205.405 -19.5844 205.348 -19.9995H204.519C204.593 -19.4598 204.658 -18.9244 204.715 -18.3933C196.843 -14.869 186.729 -13.0694 174.619 -13.0462C173.188 -15.5109 171.725 -17.8313 170.229 -20.0073H169.235C170.822 -17.7178 172.379 -15.2617 173.904 -12.6388C167.88 -2.17143 164.35 7.48642 163.415 16.0975L163.007 15.9093C160.031 14.496 157.273 12.6622 154.82 10.4642C157.294 8.11715 159.262 5.28934 160.601 2.15475C163.56 -4.90945 162.824 -12.8889 158.835 -20.0176H157.885C161.951 -13.0152 162.757 -5.1286 159.844 1.82732C158.541 4.87191 156.626 7.61743 154.218 9.89444C151.812 7.61675 149.898 4.87136 148.594 1.82732C145.682 -5.13376 146.487 -13.0152 150.554 -20.0176H149.604C145.615 -12.8992 144.879 -4.91977 147.838 2.15475C149.177 5.28934 151.145 8.11715 153.619 10.4642C151.166 12.6622 148.408 14.496 145.431 15.9093L145.023 16.0975C144.084 7.48642 140.559 -2.17143 134.535 -12.6388C136.058 -15.2617 137.615 -17.7178 139.203 -20.0073H138.209C136.72 -17.833 135.257 -15.5126 133.82 -13.0462C121.71 -13.0694 111.596 -14.869 103.723 -18.3933C103.78 -18.9244 103.846 -19.4598 103.92 -19.9995H103.091C103.034 -19.5844 102.977 -19.1694 102.933 -18.7568C102.799 -18.8213 102.657 -18.8806 102.523 -18.9451C101.831 -19.2828 101.159 -19.636 100.506 -19.9995H98.877C99.9201 -19.3653 101.017 -18.7637 102.166 -18.1948C102.391 -18.0865 102.623 -17.9834 102.853 -17.8777C102.83 -17.6199 102.802 -17.3749 102.784 -17.1249C102.514 -13.7444 102.736 -10.3428 103.445 -7.02614C100.214 -5.97893 97.1532 -4.47054 94.3558 -2.54785C94.1466 -2.40605 93.9426 -2.25393 93.7361 -2.10955C93.5295 -2.25393 93.3229 -2.40605 93.1164 -2.54785C90.319 -4.47054 87.2576 -5.97893 84.0276 -7.02614C84.7347 -10.3429 84.9573 -13.7444 84.6885 -17.1249C84.6705 -17.3827 84.6395 -17.6276 84.6188 -17.8777C84.846 -17.9834 85.081 -18.0865 85.3057 -18.1948C86.4573 -18.7551 87.5538 -19.3567 88.5952 -19.9995H86.9866C86.3333 -19.636 85.662 -19.2828 84.9674 -18.9451C84.8357 -18.8806 84.6937 -18.8213 84.5594 -18.7568C84.5155 -19.1694 84.4587 -19.5844 84.4019 -19.9995H83.5731C83.6471 -19.4598 83.7117 -18.9244 83.7668 -18.3933C75.8967 -14.869 65.7828 -13.0694 53.6729 -13.0462C52.2425 -15.5109 50.7793 -17.8313 49.2834 -20.0073H48.2894C49.8765 -17.7178 51.4326 -15.2617 52.9577 -12.6388C46.9312 -2.17143 43.4041 7.48642 42.4694 16.0975L42.0614 15.9093C39.0844 14.4965 36.3268 12.6627 33.8738 10.4642C36.3483 8.11715 38.3157 5.28934 39.655 2.15475C42.6114 -4.90945 41.8781 -12.8889 37.8888 -20.0176H36.9387C41.0054 -13.0152 41.8084 -5.1286 38.8984 1.82732C37.6006 4.8823 35.6882 7.63859 33.2799 9.92538C30.8728 7.64841 28.9588 4.90283 27.6562 1.85826C24.7436 -5.10282 25.5492 -12.9843 29.6134 -19.9866H28.6657C24.6765 -12.8683 23.9406 -4.88883 26.8971 2.18569C28.2372 5.3204 30.2055 8.14819 32.6809 10.4952C30.2286 12.6882 27.4739 14.5184 24.5009 15.93C24.3666 15.9944 24.2272 16.0537 24.0904 16.1182C23.1531 7.50705 19.6286 -2.15081 13.6046 -12.6182C15.1281 -15.2411 16.6833 -17.6972 18.2704 -19.9866H17.2712C15.7822 -17.8124 14.319 -15.492 12.8817 -13.0256C0.771832 -13.0488 -9.34208 -14.8483 -17.2148 -18.3727C-17.1605 -18.9038 -17.0934 -19.4401 -17.0185 -19.9789H-17.8448C-17.9016 -19.5638 -17.9584 -19.1487 -18.0023 -18.7362C-18.1391 -18.8007 -18.2785 -18.86 -18.4128 -18.9244C-19.1048 -19.2622 -19.7761 -19.6154 -20.4294 -19.9789H-22.0587C-21.0258 -19.3447 -19.9302 -18.7431 -18.7717 -18.1742C-18.5445 -18.0659 -18.3121 -17.9628 -18.0823 -17.8571C-18.1056 -17.5992 -18.1339 -17.3543 -18.152 -17.1042C-18.4219 -13.7238 -18.1993 -10.3221 -17.491 -7.00552C-20.7217 -5.95783 -23.7838 -4.44947 -26.5824 -2.52722C-26.789 -2.38542 -26.993 -2.23331 -27.1995 -2.08893C-27.4061 -2.23331 -27.6127 -2.38542 -27.8192 -2.52722C-30.5755 -4.43297 -33.5898 -5.93657 -36.7712 -6.99262V-6.12893C-33.7544 -5.10957 -30.8931 -3.6789 -28.2685 -1.87752C-28.1472 -1.79502 -28.0258 -1.7022 -27.9019 -1.6197C-31.1421 0.790247 -34.1154 3.53869 -36.7712 6.57891V7.81901C-33.9359 4.47785 -30.7202 1.47809 -27.1892 -1.11953C-20.197 3.92596 -13.5818 11.7714 -7.50622 22.2336C-13.5301 32.701 -17.0598 42.3434 -17.9919 50.97C-18.1288 50.9055 -18.2682 50.8462 -18.4025 50.7818C-21.3779 49.3674 -24.1344 47.5336 -26.5876 45.3367C-24.1144 42.9884 -22.1472 40.1609 -20.8064 37.0272C-17.0288 28.0036 -19.2778 17.4846 -26.6367 9.18286C-26.82 8.97661 -27.0007 8.77293 -27.1892 8.56925C-27.3777 8.77293 -27.561 8.97661 -27.7418 9.18286C-35.1032 17.4949 -37.3496 28.0036 -33.5721 37.0272C-32.233 40.1641 -30.2657 42.9945 -27.7908 45.3444C-30.2445 47.542 -33.002 49.3758 -35.9785 50.7895L-36.3865 50.9777C-36.4846 50.0779 -36.6189 49.173 -36.7712 48.2423V62.0768C-36.1696 58.9566 -35.9906 55.7697 -36.2393 52.602C-36.2574 52.3441 -36.2858 52.0992 -36.3064 51.8491C-36.0792 51.7434 -35.8443 51.6403 -35.6196 51.532C-32.5526 50.0744 -29.7131 48.1814 -27.1892 45.9116C-24.6663 48.1813 -21.8276 50.0744 -18.7614 51.532C-18.5342 51.6403 -18.3018 51.7434 -18.072 51.8491C-18.0952 52.1069 -18.1236 52.3519 -18.1417 52.602C-18.4116 55.9824 -18.189 59.3841 -17.4807 62.7007C-20.7114 63.7484 -23.7735 65.2567 -26.5721 67.179C-26.7787 67.3208 -26.9826 67.4729 -27.1892 67.6173C-27.3958 67.4729 -27.6023 67.3208 -27.8089 67.179C-30.5696 65.2822 -33.5875 63.7889 -36.7712 62.7445V63.6082C-33.7544 64.6276 -30.8931 66.0582 -28.2685 67.8596C-28.1472 67.9421 -28.0258 68.0349 -27.9019 68.1174C-31.1421 70.5274 -34.1154 73.2758 -36.7712 76.316V77.5536C-33.9352 74.2138 -30.7196 71.215 -27.1892 68.6176C-20.197 73.6631 -13.5818 81.5085 -7.50622 91.9707C-13.5301 102.438 -17.0598 112.081 -17.9919 120.707L-18.4025 120.516C-21.3782 119.104 -24.1348 117.271 -26.5876 115.074C-24.1144 112.726 -22.1472 109.898 -20.8064 106.764C-17.0288 97.7407 -19.2778 87.2217 -26.6367 78.92C-26.82 78.7137 -27.0007 78.5101 -27.1892 78.3064C-27.3777 78.5101 -27.561 78.7137 -27.7418 78.92C-35.1032 87.232 -37.3496 97.7407 -33.5721 106.764C-32.2321 109.899 -30.2648 112.726 -27.7908 115.074C-30.244 117.271 -33.0016 119.104 -35.9785 120.516L-36.3865 120.707C-36.4846 119.807 -36.6189 118.902 -36.7712 117.972V131.801C-36.1696 128.681 -35.9906 125.494 -36.2393 122.326C-36.2574 122.068 -36.2858 121.811 -36.3064 121.573C-36.0792 121.465 -35.8443 121.365 -35.6196 121.256C-32.5526 119.799 -29.7131 117.906 -27.1892 115.636C-24.6663 117.906 -21.8276 119.799 -18.7614 121.256C-18.5342 121.365 -18.3018 121.465 -18.072 121.573C-18.0952 121.831 -18.1236 122.089 -18.1417 122.326C-18.4116 125.707 -18.189 129.108 -17.4807 132.425C-20.7114 133.473 -23.7735 134.981 -26.5721 136.903C-26.7787 137.045 -26.9826 137.197 -27.1892 137.342C-27.3958 137.197 -27.6023 137.045 -27.8089 136.903C-30.5695 135.006 -33.5874 133.512 -36.7712 132.466V133.332C-33.754 134.351 -30.8925 135.781 -28.2685 137.584C-28.1472 137.666 -28.0258 137.757 -27.9019 137.842C-31.1421 140.252 -34.1154 143 -36.7712 146.04V147.278C-33.9352 143.938 -30.7196 140.939 -27.1892 138.342C-20.197 143.387 -13.5818 151.233 -7.50622 161.695C-13.5301 172.162 -17.0598 181.818 -17.9919 190.429C-18.1288 190.367 -18.2682 190.305 -18.4025 190.241C-21.3782 188.828 -24.1348 186.995 -26.5876 184.798C-24.1137 182.449 -22.1465 179.621 -20.8064 176.486C-17.0288 167.462 -19.2778 156.946 -26.6367 148.642C-26.82 148.435 -27.0007 148.232 -27.1892 148.028C-27.3777 148.232 -27.561 148.435 -27.7418 148.642C-35.1032 156.954 -37.3496 167.462 -33.5721 176.486C-32.2329 179.621 -30.2655 182.45 -27.7908 184.798C-30.244 186.996 -33.0016 188.829 -35.9785 190.241L-36.3865 190.429C-36.4846 189.532 -36.6189 188.624 -36.7712 187.696V201.525C-36.1696 198.405 -35.9906 195.218 -36.2393 192.05C-36.2574 191.793 -36.2858 191.548 -36.3064 191.298C-36.0792 191.189 -35.8443 191.089 -35.6196 190.98C-32.5526 189.523 -29.7131 187.63 -27.1892 185.36C-24.6663 187.63 -21.8276 189.523 -18.7614 190.98C-18.5342 191.089 -18.3018 191.189 -18.072 191.298C-18.0952 191.555 -18.1236 191.813 -18.1417 192.05C-18.4116 195.431 -18.189 198.833 -17.4807 202.149C-20.7118 203.196 -23.7741 204.704 -26.5721 206.627C-26.7787 206.769 -26.9826 206.919 -27.1892 207.066C-27.3958 206.919 -27.6023 206.769 -27.8089 206.627C-30.5695 204.73 -33.5874 203.236 -36.7712 202.19V203.057C-33.754 204.075 -30.8925 205.506 -28.2685 207.308C-28.1472 207.391 -28.0258 207.481 -27.9019 207.566C-31.1412 209.976 -34.1144 212.723 -36.7712 215.762V216.999C-33.9352 213.66 -30.7196 210.661 -27.1892 208.064C-20.197 213.109 -13.5818 220.954 -7.50622 231.417C-13.5301 241.881 -17.0598 251.526 -17.9919 260.15C-18.1288 260.089 -18.2682 260.027 -18.4025 259.962C-21.3778 258.549 -24.1343 256.716 -26.5876 254.52C-24.1137 252.171 -22.1465 249.342 -20.8064 246.208C-17.0288 237.184 -19.2778 226.668 -26.6367 218.363C-26.82 218.157 -27.0007 217.953 -27.1892 217.75C-27.3777 217.953 -27.561 218.157 -27.7418 218.363C-35.1032 226.675 -37.3496 237.184 -33.5721 246.208C-32.2329 249.343 -30.2655 252.172 -27.7908 254.52C-30.2446 256.716 -33.0021 258.549 -35.9785 259.962L-36.3865 260.15C-36.4846 259.253 -36.6189 258.346 -36.7712 257.418V271.244C-36.1695 268.125 -35.9906 264.939 -36.2393 261.772C-36.2574 261.514 -36.2858 261.256 -36.3064 261.017C-36.0792 260.911 -35.8443 260.81 -35.6196 260.7C-32.5522 259.244 -29.7125 257.352 -27.1892 255.082C-24.6667 257.351 -21.8279 259.244 -18.7614 260.7C-18.5342 260.81 -18.3018 260.911 -18.072 261.017C-18.0952 261.275 -18.1236 261.532 -18.1417 261.772C-18.4116 265.153 -18.189 268.554 -17.4807 271.871C-18.9932 272.351 -20.4682 272.942 -21.8934 273.639H-19.9104C-19.0403 273.273 -18.1701 272.948 -17.3025 272.673C-17.2199 272.997 -17.127 273.32 -17.0443 273.639H-16.1922C-16.311 273.242 -16.4221 272.84 -16.5228 272.433C-13.3435 271.489 -10.0042 271.205 -6.71096 271.6C-4.32374 271.909 -2.00145 272.597 0.167637 273.639H1.94926C-0.689922 272.144 -3.59538 271.175 -6.60509 270.788C-9.99359 270.379 -13.43 270.666 -16.7035 271.631C-17.3833 268.412 -17.5947 265.113 -17.3309 261.834C-17.3309 261.684 -17.3025 261.535 -17.2922 261.385C-9.35239 264.879 0.782158 266.66 12.8765 266.684C14.2364 269.049 15.4654 271.369 16.5637 273.645H17.4777C16.3227 271.238 15.0317 268.785 13.6046 266.284C19.6802 255.822 26.2954 247.979 33.2876 242.933C40.2824 247.976 46.8976 255.824 52.9732 266.284C51.5324 268.785 50.2414 271.238 49.1001 273.645H50.0116C51.1133 271.369 52.3432 269.049 53.7013 266.684C65.7931 266.66 75.9302 264.879 83.8675 261.385C83.8804 261.535 83.8984 261.684 83.9088 261.834C84.1713 265.113 83.96 268.412 83.2813 271.631C80.0079 270.666 76.5714 270.379 73.1829 270.788C70.1732 271.175 67.2678 272.144 64.6286 273.639H66.4102C68.5785 272.598 70.8999 271.909 73.2862 271.6C76.5794 271.205 79.9187 271.489 83.098 272.433C82.9947 272.84 82.8837 273.242 82.7675 273.639H83.617C83.7099 273.32 83.8029 272.997 83.8752 272.673C84.7428 272.948 85.6129 273.273 86.4805 273.639H88.4738C87.0486 272.942 85.5737 272.351 84.0611 271.871C84.7683 268.554 84.9909 265.153 84.7221 261.772C84.704 261.514 84.673 261.256 84.6524 261.017C84.8796 260.911 85.1146 260.81 85.3392 260.7C88.407 259.244 91.2468 257.352 93.7696 255.082C96.2925 257.352 99.1323 259.244 102.2 260.7C102.425 260.81 102.657 260.911 102.887 261.017C102.864 261.275 102.835 261.532 102.817 261.772C102.547 265.153 102.77 268.554 103.478 271.871C101.966 272.351 100.491 272.942 99.0654 273.639H101.056C101.926 273.273 102.796 272.948 103.664 272.673C103.747 272.997 103.84 273.32 103.922 273.639H104.772C104.653 273.242 104.542 272.84 104.441 272.433C107.621 271.489 110.96 271.205 114.253 271.6C116.64 271.909 118.963 272.597 121.132 273.639H122.913C120.274 272.144 117.369 271.175 114.359 270.788C110.97 270.379 107.534 270.666 104.261 271.631C103.581 268.412 103.369 265.113 103.633 261.834C103.633 261.684 103.661 261.535 103.674 261.385C111.612 264.879 121.749 266.66 133.84 266.684C135.2 269.049 136.429 271.369 137.528 273.645H138.442C137.288 271.238 135.993 268.785 134.556 266.284C140.631 255.822 147.247 247.979 154.239 242.933C161.234 247.976 167.849 255.824 173.924 266.284C172.484 268.785 171.188 271.238 170.038 273.645H170.952C172.052 271.369 173.281 269.049 174.64 266.684C186.731 266.66 196.868 264.879 204.806 261.385C204.819 261.535 204.837 261.684 204.847 261.834C205.111 265.113 204.899 268.412 204.22 271.631C200.946 270.666 197.51 270.379 194.121 270.788C191.111 271.175 188.206 272.144 185.567 273.639H187.348C189.517 272.597 191.84 271.909 194.227 271.6C197.52 271.205 200.86 271.489 204.039 272.433C203.938 272.84 203.827 273.242 203.708 273.639H204.558C204.651 273.32 204.744 272.997 204.816 272.673C205.684 272.948 206.554 273.273 207.424 273.639H209.415C207.989 272.942 206.514 272.351 205.002 271.871C205.71 268.554 205.933 265.153 205.663 261.772C205.645 261.514 205.616 261.256 205.593 261.017C205.823 260.911 206.055 260.81 206.28 260.7C209.348 259.244 212.188 257.352 214.71 255.082C217.233 257.352 220.073 259.244 223.141 260.7C223.365 260.81 223.6 260.911 223.828 261.017C223.807 261.275 223.776 261.532 223.758 261.772C223.489 265.153 223.712 268.554 224.419 271.871C222.906 272.351 221.431 272.942 220.006 273.639H222C222.867 273.273 223.737 272.948 224.605 272.673C224.687 272.997 224.78 273.32 224.863 273.639H225.713C225.594 273.242 225.485 272.84 225.382 272.433C228.561 271.489 231.901 271.205 235.194 271.6C237.58 271.909 239.902 272.598 242.07 273.639H243.851C241.212 272.144 238.307 271.175 235.297 270.788C231.909 270.379 228.472 270.666 225.199 271.631C224.52 268.412 224.309 265.113 224.571 261.834C224.571 261.684 224.6 261.535 224.613 261.385C232.55 264.879 242.687 266.66 254.779 266.684C256.139 269.049 257.368 271.369 258.468 273.645H259.38C258.227 271.238 256.936 268.785 255.507 266.284C261.582 255.822 268.198 247.979 275.192 242.933C282.185 247.976 288.8 255.824 294.875 266.284C293.435 268.785 292.144 271.238 291.002 273.645H291.916C293.016 271.369 294.245 269.049 295.604 266.684C307.695 266.66 317.832 264.879 325.772 261.385C325.772 261.535 325.801 261.684 325.814 261.834C326.075 265.113 325.863 268.412 325.184 271.631C321.91 270.666 318.474 270.379 315.085 270.788C312.075 271.175 309.17 272.144 306.531 273.639H308.312C310.481 272.597 312.804 271.909 315.191 271.6C318.484 271.205 321.824 271.489 325.003 272.433C324.902 272.84 324.791 273.242 324.672 273.639H325.524C325.617 273.32 325.708 272.997 325.783 272.673C326.653 272.948 327.52 273.273 328.39 273.639H330.381C328.957 272.943 327.483 272.351 325.971 271.871C326.677 268.554 326.899 265.152 326.63 261.772C326.611 261.514 326.583 261.256 326.56 261.017C326.79 260.911 327.022 260.81 327.249 260.7C330.316 259.244 333.155 257.351 335.677 255.082C338.2 257.352 341.04 259.244 344.107 260.7C344.332 260.81 344.567 260.911 344.794 261.017C344.774 261.275 344.745 261.532 344.727 261.772C344.478 264.939 344.657 268.125 345.259 271.244V257.42C345.107 258.341 344.972 259.253 344.874 260.15L344.466 259.962C341.49 258.549 338.732 256.716 336.279 254.52C338.753 252.172 340.721 249.343 342.06 246.208C345.837 237.184 343.591 226.668 336.23 218.363C336.049 218.157 335.865 217.953 335.677 217.75C335.488 217.953 335.308 218.157 335.124 218.363C327.766 226.675 325.519 237.184 329.294 246.208C330.634 249.342 332.602 252.171 335.075 254.52C332.622 256.716 329.866 258.549 326.89 259.962C326.756 260.027 326.617 260.089 326.48 260.15C325.542 251.539 322.018 241.881 315.994 231.417C322.07 220.954 328.685 213.112 335.677 208.064C339.207 210.662 342.422 213.66 345.259 216.999V215.762C342.603 212.722 339.629 209.972 336.39 207.561C336.514 207.476 336.635 207.385 336.756 207.303C339.381 205.501 342.242 204.07 345.259 203.052V202.185C342.075 203.231 339.057 204.725 336.297 206.622C336.09 206.764 335.884 206.914 335.677 207.061C335.47 206.914 335.266 206.764 335.06 206.622C332.263 204.7 329.201 203.191 325.971 202.144C326.677 198.827 326.899 195.426 326.63 192.045C326.611 191.787 326.583 191.543 326.56 191.292C326.79 191.184 327.022 191.084 327.249 190.975C330.315 189.518 333.154 187.625 335.677 185.355C338.201 187.625 341.04 189.518 344.107 190.975C344.332 191.084 344.567 191.184 344.794 191.292C344.774 191.55 344.745 191.808 344.727 192.045C344.478 195.212 344.657 198.398 345.259 201.518V187.704C345.107 188.624 344.972 189.537 344.874 190.434L344.466 190.246C341.489 188.834 338.732 187.001 336.279 184.803C338.753 182.455 340.721 179.626 342.06 176.491C345.837 167.468 343.591 156.951 336.23 148.647C336.049 148.441 335.865 148.237 335.677 148.033C335.488 148.237 335.308 148.441 335.124 148.647C327.766 156.959 325.519 167.468 329.294 176.491C330.634 179.626 332.602 182.454 335.075 184.803C332.623 187 329.866 188.833 326.89 190.246C326.756 190.31 326.617 190.372 326.48 190.434C325.542 181.823 322.018 172.168 315.994 161.7C322.07 151.238 328.685 143.395 335.677 138.347C339.207 140.945 342.422 143.944 345.259 147.283V146.045C342.603 143.005 339.629 140.256 336.39 137.844C336.514 137.759 336.635 137.669 336.756 137.586C339.381 135.785 342.242 134.354 345.259 133.335V132.469C342.076 133.515 339.058 135.009 336.297 136.906C336.09 137.048 335.884 137.2 335.677 137.344C335.47 137.2 335.266 137.048 335.06 136.906C332.262 134.984 329.201 133.476 325.971 132.428C326.677 129.111 326.899 125.709 326.63 122.329C326.611 122.071 326.583 121.813 326.56 121.576C326.79 121.468 327.022 121.367 327.249 121.259C330.315 119.801 333.154 117.908 335.677 115.638C338.201 117.908 341.04 119.801 344.107 121.259C344.332 121.367 344.567 121.468 344.794 121.576C344.774 121.834 344.745 122.092 344.727 122.329C344.478 125.496 344.657 128.682 345.259 131.801V117.977C345.107 118.897 344.972 119.81 344.874 120.71L344.466 120.519C341.489 119.107 338.732 117.274 336.279 115.076C338.753 112.729 340.72 109.901 342.06 106.767C345.837 97.7433 343.591 87.2243 336.23 78.9226C336.049 78.7163 335.865 78.5126 335.677 78.309C335.488 78.5126 335.308 78.7163 335.124 78.9226C327.766 87.2346 325.519 97.7433 329.294 106.767C330.635 109.901 332.602 112.728 335.075 115.076C332.623 117.273 329.866 119.106 326.89 120.519L326.48 120.71C325.542 112.096 322.018 102.441 315.994 91.9733C322.07 81.5111 328.685 73.6683 335.677 68.6202C339.207 71.2183 342.422 74.217 345.259 77.5561V76.3186C342.602 73.2789 339.629 70.5297 336.39 68.1174C336.514 68.0349 336.635 67.9421 336.756 67.8596C339.381 66.0578 342.242 64.6271 345.259 63.6082V62.7445C342.076 63.79 339.058 65.2832 336.297 67.179C336.09 67.3208 335.884 67.4729 335.677 67.6173C335.47 67.4729 335.266 67.3208 335.06 67.179C332.262 65.2573 329.201 63.7489 325.971 62.7007C326.677 59.3838 326.899 55.9823 326.63 52.602C326.611 52.3441 326.583 52.0992 326.56 51.8491C326.79 51.7434 327.022 51.6403 327.249 51.532C330.315 50.0744 333.154 48.1813 335.677 45.9116C338.201 48.1814 341.04 50.0744 344.107 51.532C344.332 51.6403 344.567 51.7434 344.794 51.8491C344.774 52.1069 344.745 52.3519 344.727 52.602C344.478 55.7689 344.657 58.9548 345.259 62.0742V48.25C345.107 49.1704 344.972 50.0831 344.874 50.9829L344.466 50.7947C341.485 49.3804 338.723 47.5448 336.266 45.3444C338.74 42.9968 340.707 40.1691 342.047 37.0349C345.824 28.0113 343.578 17.4923 336.217 9.1906C336.036 8.98434 335.853 8.78067 335.664 8.577C335.476 8.78067 335.295 8.98434 335.112 9.1906C327.753 17.5026 325.506 28.0113 329.281 37.0349C330.622 40.1686 332.589 42.9961 335.062 45.3444C332.609 47.5414 329.853 49.3751 326.877 50.7895C326.743 50.854 326.604 50.9132 326.467 50.9777C325.53 42.364 322.005 32.7087 315.981 22.2413C322.057 11.7791 328.672 3.93627 335.664 -1.1118C339.194 1.48628 342.409 4.48504 345.246 7.82417V6.58664C342.589 3.54692 339.616 0.797745 336.377 -1.61455C336.501 -1.69705 336.622 -1.78986 336.743 -1.87237C339.368 -3.67423 342.229 -5.10493 345.246 -6.12378V-6.99262C342.063 -5.94711 339.045 -4.45394 336.284 -2.55816C336.077 -2.40604 335.871 -2.25393 335.664 -2.10955ZM-27.1892 44.7875C-29.5988 42.5121 -31.5155 39.7673 -32.8207 36.723C-36.4614 28.019 -34.295 17.861 -27.1944 9.79905C-20.0963 17.861 -17.9274 28.019 -21.5707 36.723C-22.8719 39.7663 -24.784 42.511 -27.1892 44.7875ZM-27.1892 114.514C-29.5987 112.238 -31.5154 109.492 -32.8207 106.447C-36.4614 97.7433 -34.295 87.5853 -27.1944 79.5233C-20.0963 87.5853 -17.9274 97.7433 -21.5707 106.447C-22.8722 109.491 -24.7843 112.237 -27.1892 114.514ZM-27.1892 184.241C-29.5985 181.965 -31.515 179.221 -32.8207 176.177C-36.4614 167.473 -34.295 157.315 -27.1944 149.253C-20.0963 157.315 -17.9274 167.473 -21.5707 176.177C-22.8725 179.22 -24.7846 181.964 -27.1892 184.241ZM-27.1892 253.968C-29.5966 251.692 -31.5114 248.947 -32.8155 245.903C-36.4562 237.199 -34.2898 227.041 -27.1892 218.979C-20.0911 227.041 -17.9222 237.199 -21.5655 245.903C-22.8689 248.947 -24.7827 251.691 -27.1892 253.968ZM330.04 245.903C326.397 237.199 328.566 227.041 335.664 218.979C342.765 227.041 344.931 237.199 341.29 245.903C339.986 248.947 338.072 251.692 335.664 253.968C333.259 251.691 331.345 248.946 330.04 245.903ZM330.04 176.177C326.397 167.473 328.566 157.315 335.664 149.253C342.765 157.315 344.931 167.473 341.29 176.177C339.986 179.22 338.072 181.965 335.664 184.241C333.259 181.964 331.345 179.22 330.04 176.177ZM330.04 106.45C326.397 97.7459 328.566 87.5878 335.664 79.5259C342.765 87.5878 344.931 97.7459 341.29 106.45C339.986 109.493 338.072 112.238 335.664 114.514C333.258 112.236 331.344 109.491 330.04 106.447V106.45ZM330.04 36.723C326.397 28.019 328.566 17.861 335.664 9.79905C342.765 17.861 344.931 28.019 341.29 36.723C339.987 39.7669 338.072 42.5116 335.664 44.7875C333.258 42.511 331.344 39.7664 330.04 36.723ZM266.14 17.7398C266.122 17.482 266.093 17.2371 266.073 16.9844C266.3 16.8787 266.535 16.7756 266.759 16.6673C269.826 15.2122 272.665 13.3217 275.19 11.0546C277.713 13.3235 280.552 15.2158 283.618 16.6725C283.842 16.7808 284.077 16.8839 284.307 16.9896C284.284 17.2474 284.255 17.5052 284.237 17.745C283.968 21.1253 284.19 24.5268 284.896 27.8437C281.665 28.8898 278.604 30.3983 275.807 32.322C275.6 32.4612 275.396 32.6133 275.19 32.7577C274.983 32.6133 274.777 32.4612 274.57 32.322C271.774 30.3973 268.712 28.8888 265.481 27.8437C266.189 24.5253 266.411 21.1219 266.14 17.7398ZM281.57 211.361C285.348 202.337 283.101 191.818 275.742 183.517C275.559 183.313 275.378 183.107 275.19 182.903C275.001 183.107 274.818 183.313 274.637 183.517C267.276 191.829 265.029 202.337 268.807 211.361C270.147 214.495 272.114 217.323 274.588 219.67C272.135 221.869 269.378 223.703 266.401 225.116L265.993 225.304C265.053 216.69 261.531 207.035 255.504 196.567C261.58 186.108 268.195 178.262 275.19 173.217C282.182 178.262 288.797 186.108 294.873 196.567C288.849 207.035 285.319 216.677 284.387 225.304C284.25 225.239 284.111 225.18 283.977 225.116C281 223.702 278.243 221.868 275.789 219.67C278.264 217.322 280.232 214.492 281.57 211.356V211.361ZM275.19 219.114C272.782 216.837 270.867 214.091 269.564 211.046C265.923 202.343 268.089 192.187 275.19 184.123C282.288 192.187 284.457 202.343 280.814 211.046C279.511 214.091 277.597 216.837 275.19 219.114ZM160.619 211.364C164.397 202.34 162.15 191.821 154.789 183.519C154.608 183.316 154.425 183.109 154.236 182.906C154.05 183.109 153.867 183.316 153.686 183.519C146.325 191.831 144.078 202.34 147.856 211.364C149.196 214.498 151.163 217.325 153.637 219.673C151.184 221.871 148.426 223.705 145.449 225.118L145.041 225.306C144.102 216.693 140.577 207.037 134.553 196.57C140.629 186.11 147.244 178.265 154.236 173.219C161.231 178.265 167.846 186.11 173.922 196.57C167.898 207.037 164.368 216.68 163.433 225.306L163.025 225.118C160.049 223.705 157.291 221.871 154.838 219.673C157.313 217.323 159.28 214.493 160.619 211.356V211.364ZM154.236 219.114C151.83 216.836 149.916 214.09 148.612 211.046C144.969 202.343 147.138 192.187 154.236 184.123C161.337 192.187 163.506 202.343 159.862 211.046C158.559 214.091 156.644 216.837 154.236 219.114ZM39.6679 211.364C43.4454 202.34 41.199 191.821 33.8376 183.519C33.6569 183.316 33.4735 183.109 33.285 182.906C33.0966 183.109 32.9158 183.316 32.7325 183.519C25.3736 191.831 23.1273 202.34 26.9022 211.364C28.2429 214.498 30.2111 217.326 32.686 219.673C30.2321 221.87 27.4747 223.704 24.4983 225.118C24.364 225.183 24.2246 225.242 24.0878 225.306C23.1505 216.693 19.626 207.037 13.6021 196.57C19.6776 186.11 26.2929 178.265 33.285 173.219C40.2798 178.265 46.8951 186.11 52.9706 196.57C46.9441 207.037 43.417 216.68 42.4823 225.306L42.0744 225.118C39.0973 223.705 36.3397 221.871 33.8867 219.673C36.3615 217.323 38.3289 214.493 39.6679 211.356V211.364ZM33.2799 219.114C30.8728 216.837 28.9588 214.091 27.6562 211.046C24.0129 202.343 26.1818 192.187 33.2799 184.123C40.3805 192.187 42.5469 202.343 38.9062 211.046C37.6024 214.091 35.6876 216.837 33.2799 219.114ZM73.1623 61.6256C63.4434 62.8734 55.4468 70.0717 51.9197 80.5932C51.8319 80.851 51.7441 81.1089 51.6615 81.3667C51.9197 81.426 52.2011 81.4827 52.4723 81.5368C63.3608 83.7463 73.6038 80.4308 79.5451 72.6499C81.5932 69.9243 83.0623 66.8098 83.8623 63.4973C86.9948 64.5198 89.9637 65.9873 92.6774 67.8545C92.7988 67.937 92.9356 68.0298 93.0441 68.1123C86.0441 73.23 79.4315 81.1037 73.3637 91.5479C61.2538 91.5247 51.1425 89.7251 43.2698 86.2008C44.1477 77.6335 47.6438 67.9885 53.6807 57.5031C65.7724 57.4799 75.9096 55.6983 83.8468 52.2049C83.8597 52.3545 83.8778 52.504 83.8881 52.6535C84.1502 55.9324 83.9389 59.2318 83.2607 62.4506C79.9881 61.4896 76.5535 61.2062 73.1674 61.6178L73.1623 61.6256ZM83.0748 63.2705C82.3042 66.4905 80.8806 69.5187 78.8919 72.1677C73.1623 79.6677 63.2704 82.8723 52.7253 80.766C56.1698 70.5951 63.8953 63.6417 73.2655 62.4403C76.5589 62.0406 79.8994 62.3205 83.0799 63.2627L83.0748 63.2705ZM84.7092 52.6097C84.6911 52.3519 84.6602 52.1069 84.6395 51.8569C84.8667 51.7512 85.1017 51.648 85.3263 51.5397C88.3936 50.0828 91.2333 48.1897 93.7567 45.9193C96.2801 48.1897 99.1198 50.0828 102.187 51.5397C102.412 51.648 102.644 51.7512 102.874 51.8569C102.851 52.1147 102.822 52.3596 102.804 52.6097C102.534 55.9901 102.757 59.3918 103.465 62.7084C100.235 63.7556 97.1738 65.264 94.3764 67.1867C94.1673 67.3285 93.9633 67.4806 93.7567 67.625C93.5502 67.4806 93.3436 67.3285 93.137 67.1867C90.3396 65.264 87.2783 63.7556 84.0482 62.7084C84.7578 59.3894 84.9822 55.9852 84.7144 52.602L84.7092 52.6097ZM88.133 36.7307C84.4897 28.0268 86.6561 17.8687 93.7567 9.80678C100.857 17.8687 103.024 28.0268 99.3804 36.7307C98.0786 39.775 96.1645 42.5199 93.7567 44.7952C91.3499 42.5171 89.4375 39.7696 88.1382 36.723L88.133 36.7307ZM107.968 72.6628C113.907 80.4437 124.153 83.7489 135.041 81.5497C135.299 81.4956 135.581 81.4389 135.849 81.3796C135.769 81.1218 135.682 80.864 135.591 80.6061C132.061 70.0846 124.065 62.8863 114.349 61.6385C110.96 61.2303 107.523 61.5181 104.25 62.4841C103.571 59.2655 103.359 55.9659 103.623 52.687C103.623 52.5375 103.651 52.388 103.664 52.2384C111.601 55.7344 121.738 57.5134 133.83 57.5366C139.864 68.022 143.363 77.667 144.241 86.2343C136.368 89.7587 126.257 91.5582 114.145 91.5814C108.079 81.1372 101.467 73.2764 94.4668 68.1458C94.5881 68.0607 94.7095 67.9679 94.8335 67.888C97.5472 66.0208 100.516 64.5533 103.649 63.5308C104.455 66.834 105.926 69.9385 107.974 72.655L107.968 72.6628ZM104.439 63.2705C107.618 62.3256 110.957 62.0431 114.251 62.4403C123.623 63.6417 131.349 70.5951 134.791 80.766C124.248 82.8723 114.356 79.6677 108.627 72.1677C106.637 69.5164 105.213 66.4855 104.444 63.2627L104.439 63.2705ZM194.113 61.6256C184.397 62.8734 176.401 70.0717 172.871 80.5932C172.783 80.851 172.695 81.1089 172.613 81.3667C172.871 81.426 173.15 81.4827 173.421 81.5368C184.309 83.7463 194.552 80.4308 200.494 72.6499C202.542 69.9243 204.011 66.8098 204.811 63.4973C207.943 64.5198 210.912 65.9873 213.626 67.8545C213.75 67.937 213.884 68.0298 213.993 68.1123C206.993 73.23 200.38 81.1037 194.315 91.5479C182.202 91.5247 172.091 89.7251 164.218 86.2008C165.099 77.6335 168.608 67.9885 174.629 57.5031C186.721 57.4799 196.858 55.6983 204.795 52.2049C204.808 52.3545 204.826 52.504 204.837 52.6535C205.1 55.9324 204.889 59.232 204.209 62.4506C200.938 61.49 197.504 61.2066 194.119 61.6178L194.113 61.6256ZM204.026 63.2705C203.256 66.4865 201.834 69.511 199.848 72.1574C194.119 79.6574 184.227 82.862 173.684 80.7557C177.126 70.5847 184.852 63.6314 194.224 62.43C197.516 62.0344 200.854 62.3179 204.031 63.2627L204.026 63.2705ZM205.66 52.6097C205.642 52.3519 205.614 52.1069 205.591 51.8569C205.82 51.7512 206.053 51.648 206.277 51.5397C209.345 50.0828 212.184 48.1897 214.708 45.9193C217.231 48.1897 220.071 50.0828 223.138 51.5397C223.363 51.648 223.598 51.7512 223.825 51.8569C223.804 52.1147 223.773 52.3596 223.755 52.6097C223.487 55.9901 223.709 59.3916 224.416 62.7084C221.186 63.7556 218.125 65.264 215.328 67.1867C215.121 67.3285 214.914 67.4806 214.708 67.625C214.501 67.4806 214.297 67.3285 214.088 67.1867C211.291 65.264 208.229 63.7556 204.999 62.7084C205.71 59.3895 205.934 55.9852 205.665 52.602L205.66 52.6097ZM209.084 36.7307C205.441 28.0268 207.607 17.8687 214.708 9.80678C221.808 17.8687 223.975 28.0268 220.332 36.7307C219.03 39.775 217.116 42.5199 214.708 44.7952C212.301 42.5171 210.389 39.7696 209.089 36.723L209.084 36.7307ZM228.919 72.6628C234.858 80.4437 245.104 83.7489 255.992 81.5497C256.263 81.4956 256.532 81.4389 256.803 81.3796C256.72 81.1218 256.633 80.864 256.545 80.6061C253.018 70.0846 245.019 62.8863 235.302 61.6385C231.914 61.2303 228.477 61.5181 225.204 62.4841C224.526 59.2653 224.314 55.9659 224.576 52.687C224.576 52.5375 224.605 52.388 224.618 52.2384C232.555 55.7344 242.692 57.5134 254.784 57.5366C260.821 68.022 264.317 77.667 265.195 86.2343C257.322 89.7587 247.211 91.5582 235.101 91.5814C229.033 81.1372 222.42 73.2764 215.42 68.1458C215.542 68.0607 215.679 67.9679 215.787 67.888C218.501 66.0208 221.47 64.5533 224.602 63.5308C225.407 66.8338 226.878 69.9383 228.925 72.655L228.919 72.6628ZM225.385 63.2627C228.564 62.3183 231.903 62.0357 235.196 62.4325C244.567 63.634 252.292 70.5873 255.737 80.7582C245.192 82.8646 235.3 79.6599 229.57 72.16C227.58 69.5111 226.156 66.483 225.385 63.2627ZM254.585 96.4825C244.866 97.7278 236.87 104.929 233.34 115.45C233.255 115.708 233.167 115.966 233.082 116.224C233.34 116.286 233.621 116.34 233.89 116.394C244.781 118.603 255.024 115.288 260.965 107.509C263.013 104.783 264.481 101.668 265.28 98.3543C268.412 99.3768 271.381 100.844 274.095 102.711L274.464 102.969C267.464 108.087 260.852 115.963 254.784 126.405C242.674 126.382 232.56 124.585 224.69 121.06C225.568 112.49 229.064 102.845 235.101 92.3626C247.19 92.3394 257.327 90.5579 265.267 87.0645C265.267 87.2114 265.298 87.3635 265.308 87.5105C265.571 90.7893 265.359 94.0888 264.681 97.3076C261.41 96.3502 257.978 96.0695 254.595 96.4825H254.585ZM264.498 98.1248C263.726 101.345 262.302 104.372 260.315 107.022C254.585 114.525 244.693 117.729 234.148 115.62C237.593 105.449 245.318 98.4961 254.688 97.2947C257.984 96.898 261.326 97.1805 264.508 98.1248H264.498ZM254.585 166.207C244.866 167.455 236.87 174.655 233.34 185.177C233.255 185.435 233.167 185.693 233.082 185.95C233.34 186.012 233.621 186.066 233.89 186.121C244.781 188.33 255.024 185.015 260.965 177.236C263.013 174.51 264.481 171.394 265.28 168.081C268.418 169.106 271.391 170.577 274.108 172.449L274.477 172.706C267.477 177.824 260.865 185.698 254.797 196.142C242.687 196.119 232.573 194.322 224.703 190.797C225.581 182.228 229.077 172.583 235.114 162.1C247.203 162.077 257.34 160.295 265.28 156.799C265.28 156.949 265.311 157.101 265.321 157.248C265.583 160.526 265.372 163.826 264.694 167.045C261.42 166.082 257.984 165.797 254.595 166.207H254.585ZM264.498 167.852C263.726 171.071 262.302 174.099 260.315 176.749C254.585 184.251 244.693 187.456 234.148 185.347C237.593 175.176 245.318 168.223 254.688 167.021C257.984 166.625 261.326 166.907 264.508 167.852H264.498ZM221.086 176.491C224.863 167.468 222.617 156.951 215.255 148.647C215.074 148.441 214.891 148.237 214.703 148.033C214.514 148.237 214.333 148.441 214.15 148.647C206.789 156.959 204.542 167.468 208.32 176.491C209.66 179.626 211.627 182.454 214.101 184.803C211.648 187 208.892 188.833 205.916 190.246C205.782 190.31 205.64 190.372 205.505 190.434C204.568 181.823 201.044 172.168 195.02 161.7C201.093 151.238 207.71 143.395 214.703 138.347C221.695 143.392 228.313 151.238 234.388 161.7C228.362 172.168 224.835 181.823 223.9 190.434C223.766 190.372 223.624 190.31 223.492 190.246C220.519 188.833 217.765 187 215.315 184.803C217.788 182.454 219.756 179.626 221.096 176.491H221.086ZM214.703 184.241C212.295 181.965 210.381 179.221 209.079 176.177C205.436 167.473 207.602 157.315 214.703 149.253C221.803 157.315 223.97 167.473 220.326 176.177C219.027 179.22 217.116 181.964 214.713 184.241H214.703ZM100.155 176.491C103.933 167.468 101.686 156.951 94.3248 148.647C94.1415 148.441 93.9607 148.237 93.7722 148.033C93.5837 148.237 93.4004 148.441 93.2197 148.647C85.8582 156.959 83.6119 167.468 87.3894 176.491C88.7286 179.626 90.696 182.455 93.1706 184.803C90.7138 186.999 87.9527 188.829 84.9726 190.238C84.8409 190.302 84.6989 190.364 84.5646 190.426C83.6247 181.815 80.1028 172.16 74.0763 161.692C80.1519 151.23 86.7697 143.387 93.7619 138.339C100.754 143.385 107.372 151.23 113.445 161.692C107.421 172.16 103.891 181.815 102.959 190.426C102.825 190.364 102.683 190.302 102.549 190.238C99.5729 188.825 96.8162 186.992 94.3635 184.795C96.8402 182.45 98.811 179.624 100.155 176.491ZM93.7722 184.241C91.365 181.965 89.451 179.221 88.1485 176.177C84.5052 167.473 86.6716 157.315 93.7722 149.253C100.873 157.315 103.039 167.473 99.3959 176.177C98.0905 179.221 96.1728 181.966 93.7619 184.241H93.7722ZM47.507 177.247C53.4457 185.025 63.6913 188.333 74.5824 186.131C74.8406 186.077 75.1195 186.023 75.3906 185.961C75.3079 185.703 75.2202 185.445 75.1324 185.187C71.6027 174.666 63.6061 167.465 53.8873 166.217C50.4986 165.81 47.0623 166.098 43.7888 167.063C43.1105 163.844 42.8992 160.544 43.1614 157.266C43.1614 157.119 43.1898 156.967 43.2027 156.817C51.1425 160.313 61.2771 162.095 73.3688 162.118C79.4057 172.601 82.9018 182.246 83.7797 190.815C75.9096 194.34 65.7957 196.137 53.6859 196.16C47.6206 185.716 41.0054 177.842 34.0055 172.724L34.3747 172.467C37.0884 170.599 40.0573 169.132 43.1898 168.109C43.9882 171.416 45.4537 174.525 47.4967 177.247H47.507ZM43.9773 167.852C47.1568 166.908 50.4961 166.626 53.7891 167.021C63.1594 168.223 70.8849 175.176 74.3294 185.347C63.7842 187.456 53.8924 184.251 48.1628 176.749C46.1705 174.1 44.7426 171.072 43.967 167.852H43.9773ZM47.507 107.522C53.4457 115.301 63.6913 118.608 74.5824 116.407C74.8406 116.353 75.1195 116.298 75.3906 116.237C75.3079 115.979 75.2202 115.721 75.1324 115.463C71.6027 104.942 63.6061 97.7407 53.8873 96.4954C50.4988 96.0865 47.0623 96.3734 43.7888 97.3385C43.1105 94.1197 42.8992 90.8203 43.1614 87.5414C43.1614 87.3945 43.1898 87.2424 43.2027 87.0954C51.1425 90.5888 61.2771 92.3703 73.3688 92.3936C79.4057 102.876 82.9018 112.521 83.7797 121.091C75.9096 124.616 65.7957 126.413 53.6859 126.436C47.6206 115.994 41.0054 108.118 34.0055 103L34.3747 102.742C37.0884 100.875 40.0573 99.4077 43.1898 98.3852C43.9885 101.691 45.454 104.799 47.4967 107.52L47.507 107.522ZM43.9773 98.1274C47.1568 97.1842 50.4961 96.9017 53.7891 97.2972C63.1594 98.4987 70.8849 105.452 74.3294 115.623C63.7842 117.732 53.8924 114.527 48.1628 107.025C46.1702 104.375 44.7422 101.346 43.967 98.1248L43.9773 98.1274ZM133.655 96.4851C123.936 97.7304 115.939 104.931 112.409 115.453C112.322 115.711 112.236 115.968 112.151 116.226C112.422 116.288 112.691 116.342 112.959 116.396C123.851 118.606 134.094 115.29 140.032 107.512C142.082 104.786 143.551 101.671 144.349 98.3569C147.482 99.38 150.45 100.847 153.165 102.714L153.534 102.972C146.534 108.09 139.919 115.966 133.853 126.407C121.744 126.384 111.63 124.587 103.757 121.063C104.637 112.493 108.134 102.848 114.17 92.3652C126.26 92.342 136.397 90.5605 144.337 87.067C144.35 87.214 144.368 87.3661 144.378 87.5131C144.639 90.792 144.427 94.0915 143.748 97.3101C140.472 96.3488 137.033 96.0672 133.644 96.4825L133.655 96.4851ZM143.565 98.1274C142.795 101.348 141.371 104.376 139.382 107.025C133.655 114.527 123.763 117.732 113.218 115.623C116.662 105.452 124.388 98.4987 133.758 97.2972C137.046 96.903 140.38 97.1846 143.554 98.1248L143.565 98.1274ZM145.199 87.4667C145.181 87.2088 145.152 86.9665 145.129 86.7138C145.359 86.6081 145.594 86.505 145.819 86.3967C148.886 84.9407 151.725 83.0474 154.246 80.7763C156.77 83.047 159.609 84.9402 162.677 86.3967C162.901 86.505 163.137 86.6081 163.366 86.7138C163.343 86.9716 163.315 87.2295 163.297 87.4667C163.025 90.847 163.247 94.2487 163.955 97.5654C160.725 98.6135 157.663 100.123 154.866 102.046C154.66 102.185 154.453 102.338 154.246 102.482C154.042 102.338 153.836 102.185 153.629 102.046C150.832 100.122 147.771 98.613 144.541 97.5654C145.245 94.2473 145.463 90.8447 145.189 87.4641L145.199 87.4667ZM148.623 71.5877C144.979 62.8837 147.148 52.7283 154.246 44.6637C161.347 52.7283 163.516 62.8837 159.873 71.5877C158.569 74.6322 156.654 77.3778 154.246 79.6548C151.836 77.3773 149.919 74.631 148.612 71.5851L148.623 71.5877ZM168.461 107.522C174.399 115.301 184.642 118.608 195.533 116.407C195.792 116.353 196.071 116.298 196.342 116.237C196.259 115.979 196.174 115.721 196.083 115.463C192.554 104.942 184.557 97.7407 174.838 96.4954C171.451 96.0862 168.015 96.3731 164.742 97.3385C164.063 94.1198 163.851 90.8204 164.112 87.5414C164.112 87.3945 164.141 87.2424 164.154 87.0954C172.094 90.5888 182.228 92.3703 194.32 92.3936C200.357 102.876 203.853 112.521 204.733 121.091C196.861 124.616 186.747 126.413 174.637 126.436C168.572 115.994 161.956 108.118 154.957 103L155.326 102.742C158.04 100.876 161.009 99.4084 164.141 98.3852C164.94 101.691 166.406 104.8 168.45 107.52L168.461 107.522ZM164.931 98.1274C168.11 97.1842 171.45 96.9017 174.743 97.2972C184.113 98.4987 191.839 105.452 195.283 115.623C184.738 117.732 174.846 114.527 169.119 107.025C167.124 104.377 165.694 101.347 164.921 98.1248L164.931 98.1274ZM160.629 141.632C164.407 132.608 162.16 122.092 154.799 113.787C154.618 113.584 154.435 113.377 154.246 113.174C154.061 113.377 153.877 113.584 153.697 113.787C146.335 122.102 144.089 132.608 147.866 141.632C149.206 144.766 151.173 147.593 153.647 149.941C151.194 152.139 148.437 153.973 145.46 155.386L145.052 155.574C144.112 146.963 140.587 137.305 134.563 126.838C140.639 116.378 147.254 108.533 154.246 103.487C161.241 108.533 167.856 116.378 173.932 126.838C167.908 137.305 164.378 146.963 163.444 155.574L163.036 155.386C160.059 153.973 157.301 152.139 154.848 149.941C157.319 147.592 159.282 144.763 160.619 141.629L160.629 141.632ZM154.246 149.382C151.84 147.104 149.926 144.359 148.623 141.314C144.979 132.611 147.148 122.455 154.246 114.391C161.347 122.455 163.516 132.611 159.873 141.314C158.566 144.359 156.647 147.104 154.236 149.379L154.246 149.382ZM84.7144 122.329C84.6963 122.071 84.6653 121.813 84.6447 121.576C84.8719 121.468 85.1068 121.367 85.3315 121.259C88.3988 119.802 91.2385 117.909 93.7619 115.638C96.2853 117.909 99.125 119.802 102.192 121.259C102.417 121.367 102.649 121.468 102.879 121.576C102.856 121.834 102.827 122.092 102.809 122.329C102.539 125.709 102.762 129.111 103.47 132.428C100.24 133.475 97.179 134.983 94.3816 136.906C94.1724 137.048 93.9684 137.2 93.7619 137.344C93.5553 137.2 93.3488 137.048 93.1422 136.906C90.3448 134.983 87.2835 133.475 84.0534 132.428C84.7605 129.111 84.9831 125.709 84.7144 122.329ZM88.1382 106.447C84.4949 97.7433 86.6612 87.5853 93.7619 79.5233C100.863 87.5853 103.029 97.7433 99.3856 106.447C98.0832 109.491 96.1691 112.236 93.7619 114.512C91.3546 112.236 89.4406 109.491 88.1382 106.447ZM94.8515 137.584C97.5653 135.717 100.534 134.249 103.667 133.227C104.467 136.539 105.936 139.654 107.984 142.379C113.923 150.16 124.168 153.465 135.057 151.266C135.315 151.212 135.596 151.155 135.865 151.094C135.785 150.836 135.697 150.578 135.607 150.32C132.077 139.799 124.08 132.598 114.364 131.352C110.975 130.944 107.539 131.232 104.266 132.198C103.586 128.979 103.375 125.68 103.638 122.401C103.638 122.251 103.667 122.102 103.68 121.952C111.617 125.448 121.754 127.227 133.846 127.251C139.88 137.736 143.379 147.381 144.257 155.948C136.384 159.473 126.273 161.272 114.16 161.295C108.095 150.851 101.482 142.975 94.4823 137.86C94.5959 137.759 94.7173 137.669 94.8412 137.586L94.8515 137.584ZM104.444 133.002C107.623 132.058 110.963 131.775 114.256 132.172C123.629 133.374 131.354 140.327 134.796 150.498C124.253 152.604 114.362 149.4 108.632 141.897C106.641 139.25 105.215 136.222 104.444 133.002ZM174.637 127.251C186.729 127.227 196.866 125.446 204.803 121.952C204.816 122.102 204.834 122.251 204.844 122.401C205.108 125.68 204.896 128.979 204.217 132.198C200.944 131.232 197.507 130.944 194.119 131.352C184.402 132.598 176.406 139.799 172.876 150.32C172.788 150.578 172.7 150.836 172.618 151.094C172.876 151.155 173.155 151.212 173.426 151.266C184.314 153.476 194.558 150.16 200.499 142.379C202.547 139.654 204.016 136.539 204.816 133.227C207.949 134.249 210.917 135.717 213.631 137.584C213.755 137.666 213.889 137.757 213.998 137.842C206.998 142.957 200.385 150.833 194.32 161.277C182.208 161.254 172.096 159.455 164.223 155.93C165.107 147.368 168.603 137.723 174.637 127.238V127.251ZM204.031 133.002C203.261 136.222 201.837 139.249 199.848 141.897C194.119 149.4 184.227 152.604 173.684 150.498C177.126 140.327 184.852 133.374 194.224 132.172C197.516 131.776 200.854 132.058 204.031 133.002ZM205.004 132.44C205.713 129.124 205.935 125.722 205.665 122.342C205.647 122.084 205.619 121.826 205.596 121.589C205.826 121.481 206.058 121.38 206.283 121.272C209.35 119.815 212.19 117.922 214.713 115.651C217.236 117.922 220.076 119.815 223.143 121.272C223.368 121.38 223.603 121.481 223.83 121.589C223.81 121.847 223.779 122.104 223.76 122.342C223.492 125.722 223.714 129.124 224.422 132.44C221.191 133.488 218.13 134.996 215.333 136.919C215.126 137.06 214.92 137.213 214.713 137.357C214.506 137.213 214.302 137.06 214.093 136.919C211.297 134.991 208.235 133.479 205.004 132.428V132.44ZM209.089 106.447C205.446 97.7433 207.612 87.5853 214.713 79.5233C221.814 87.5853 223.98 97.7433 220.337 106.447C219.034 109.491 217.12 112.236 214.713 114.512C212.306 112.236 210.392 109.491 209.089 106.447ZM223.91 120.707C223.776 120.643 223.634 120.581 223.502 120.516C220.525 119.105 217.768 117.273 215.315 115.076C217.788 112.728 219.755 109.901 221.096 106.767C224.873 97.7433 222.627 87.2243 215.266 78.9226C215.085 78.7163 214.901 78.5126 214.713 78.309C214.524 78.5126 214.344 78.7163 214.16 78.9226C206.799 87.2346 204.553 97.7433 208.33 106.767C209.671 109.901 211.638 112.728 214.111 115.076C211.659 117.273 208.902 119.106 205.926 120.519L205.516 120.71C204.578 112.096 201.054 102.441 195.03 91.9733C201.103 81.5111 207.721 73.6683 214.713 68.6202C221.705 73.6657 228.323 81.5111 234.399 91.9733C228.372 102.441 224.848 112.096 223.91 120.71V120.707ZM102.959 120.707L102.549 120.516C99.5729 119.104 96.8162 117.271 94.3635 115.074C96.8401 112.727 98.8109 109.901 100.155 106.767C103.933 97.7433 101.686 87.2243 94.3248 78.9226C94.1415 78.7163 93.9607 78.5126 93.7722 78.309C93.5837 78.5126 93.4004 78.7163 93.2197 78.9226C85.8582 87.2346 83.6119 97.7433 87.3894 106.767C88.7293 109.901 90.6966 112.729 93.1706 115.076C90.7174 117.274 87.9599 119.107 84.9829 120.519C84.8512 120.583 84.7092 120.645 84.575 120.71C83.6351 112.096 80.1132 102.441 74.0867 91.9733C80.1622 81.5111 86.78 73.6683 93.7722 68.6202C100.764 73.6657 107.382 81.5111 113.455 91.9733C107.421 102.441 103.896 112.096 102.959 120.71V120.707ZM53.6781 127.238C65.7699 127.214 75.907 125.433 83.8442 121.939C83.8571 122.089 83.8752 122.239 83.8855 122.388C84.1476 125.667 83.9364 128.966 83.2581 132.185C79.9848 131.219 76.5484 130.931 73.1597 131.34C63.4408 132.585 55.4442 139.786 51.9172 150.307C51.8294 150.565 51.7416 150.823 51.6589 151.081C51.9172 151.142 52.1986 151.199 52.4697 151.253C63.3582 153.463 73.6012 150.147 79.5425 142.366C81.5906 139.641 83.0597 136.526 83.8597 133.214C86.9923 134.236 89.9611 135.704 92.6749 137.571C92.7962 137.653 92.933 137.744 93.0415 137.829C86.0415 142.944 79.4289 150.82 73.3611 161.264C61.2513 161.241 51.14 159.442 43.2673 155.917C44.1529 147.368 47.649 137.723 53.6781 127.238ZM83.0799 133.002C82.3099 136.222 80.8862 139.249 78.897 141.897C73.1674 149.4 63.2756 152.604 52.7305 150.498C56.1749 140.327 63.9004 133.374 73.2707 132.172C76.5629 131.776 79.9016 132.058 83.0799 133.002ZM114.163 162.115C126.252 162.092 136.389 160.31 144.329 156.814C144.342 156.964 144.36 157.116 144.37 157.263C144.632 160.542 144.419 163.841 143.74 167.06C140.468 166.095 137.032 165.807 133.644 166.215C123.925 167.462 115.929 174.663 112.399 185.185C112.311 185.443 112.226 185.7 112.141 185.958C112.412 186.02 112.681 186.074 112.949 186.128C123.84 188.338 134.083 185.022 140.022 177.244C142.072 174.518 143.541 171.403 144.339 168.089C147.471 169.112 150.44 170.579 153.154 172.446L153.523 172.704C146.524 177.821 139.908 185.695 133.843 196.139C121.733 196.116 111.619 194.319 103.747 190.795C104.63 182.23 108.126 172.585 114.163 162.102V162.115ZM143.554 167.865C142.785 171.085 141.361 174.113 139.371 176.762C133.644 184.264 123.752 187.469 113.207 185.36C116.652 175.189 124.377 168.236 133.748 167.034C137.038 166.635 140.376 166.913 143.554 167.852V167.865ZM144.53 167.303C145.238 163.986 145.46 160.584 145.189 157.204C145.171 156.946 145.142 156.688 145.119 156.451C145.349 156.345 145.584 156.242 145.808 156.134C148.875 154.678 151.714 152.785 154.236 150.513C156.759 152.784 159.599 154.677 162.667 156.134C162.891 156.242 163.126 156.345 163.356 156.451C163.333 156.709 163.304 156.967 163.286 157.204C163.015 160.584 163.237 163.986 163.945 167.303C160.715 168.351 157.653 169.86 154.856 171.783C154.649 171.923 154.443 172.075 154.236 172.219C154.032 172.075 153.826 171.923 153.619 171.783C150.823 169.856 147.761 168.343 144.53 167.292V167.303ZM155.318 172.459C158.032 170.592 161.001 169.125 164.133 168.102C164.932 171.416 166.401 174.531 168.45 177.257C174.389 185.035 184.632 188.343 195.523 186.141C195.781 186.087 196.06 186.033 196.331 185.971C196.249 185.713 196.164 185.455 196.073 185.198C192.543 174.676 184.547 167.475 174.828 166.227C171.44 165.82 168.005 166.108 164.732 167.073C164.053 163.854 163.841 160.555 164.102 157.276C164.102 157.129 164.131 156.977 164.144 156.827C172.083 160.323 182.218 162.105 194.31 162.128C200.346 172.611 203.843 182.256 204.723 190.826C196.85 194.35 186.736 196.147 174.627 196.17C168.561 185.726 161.946 177.852 154.946 172.735L155.318 172.459ZM164.921 167.862C168.1 166.919 171.439 166.636 174.733 167.032C184.103 168.233 191.828 175.187 195.273 185.357C184.728 187.466 174.836 184.262 169.109 176.759C167.116 174.108 165.69 171.076 164.921 167.852V167.862ZM235.106 161.293C229.038 150.849 222.426 142.972 215.426 137.857C215.547 137.769 215.684 137.679 215.792 137.599C218.506 135.732 221.475 134.265 224.607 133.242C225.407 136.555 226.877 139.669 228.925 142.395C234.863 150.176 245.109 153.481 255.997 151.282C256.269 151.228 256.537 151.171 256.808 151.109C256.726 150.851 256.638 150.593 256.55 150.336C253.023 139.814 245.024 132.613 235.307 131.368C231.919 130.96 228.482 131.247 225.209 132.214C224.531 128.995 224.319 125.695 224.582 122.416C224.582 122.267 224.61 122.117 224.623 121.968C232.56 125.464 242.697 127.243 254.789 127.266C260.826 137.751 264.322 147.396 265.2 155.964C257.327 159.46 247.216 161.259 235.106 161.282V161.293ZM225.385 133.002C228.564 132.058 231.903 131.775 235.196 132.172C244.567 133.374 252.292 140.327 255.737 150.498C245.192 152.604 235.3 149.4 229.57 141.897C227.58 139.249 226.155 136.222 225.385 133.002ZM163.415 85.8579L163.007 85.6697C160.031 84.2564 157.273 82.4225 154.82 80.2245C157.302 77.8747 159.276 75.0413 160.619 71.8996C164.397 62.876 162.15 52.3596 154.789 44.0553C154.608 43.8516 154.425 43.6454 154.236 43.4443C154.05 43.6454 153.867 43.8516 153.686 44.0553C146.325 52.3699 144.078 62.876 147.856 71.8996C149.195 75.0342 151.163 77.862 153.637 80.2091C151.184 82.4071 148.426 84.2409 145.449 85.6542L145.041 85.8424C144.102 77.2313 140.577 67.5734 134.553 57.106C140.629 46.6464 147.244 38.801 154.236 33.7555C161.231 38.801 167.846 46.6464 173.922 57.106C167.898 67.576 164.373 77.2339 163.433 85.845L163.415 85.8579ZM42.4642 85.8579L42.0563 85.6697C39.0792 84.2569 36.3216 82.423 33.8686 80.2245C36.3514 77.8747 38.3251 75.0413 39.6679 71.8996C43.4454 62.876 41.199 52.3596 33.8376 44.0553C33.6569 43.8516 33.4735 43.6454 33.285 43.4443C33.0966 43.6454 32.9158 43.8516 32.7325 44.0553C25.3736 52.3699 23.1273 62.876 26.9022 71.8996C28.2424 75.0343 30.2107 77.8621 32.686 80.2091C30.233 82.4071 27.4765 84.2417 24.5009 85.6568C24.3666 85.7212 24.2272 85.7805 24.0904 85.845C23.1531 77.2339 19.6286 67.576 13.6046 57.1086C19.6802 46.6489 26.2954 38.8035 33.2876 33.7581C40.2824 38.8035 46.8976 46.6489 52.9732 57.1086C46.9441 67.576 43.4222 77.2339 42.4823 85.845L42.4642 85.8579ZM33.267 79.6702C30.8599 77.3933 28.9459 74.6477 27.6433 71.6031C24 62.8992 26.1689 52.7438 33.267 44.6792C40.3676 52.7438 42.534 62.8992 38.8933 71.6031C37.5911 74.6401 35.6809 77.3792 33.2799 79.6522L33.267 79.6702ZM24.2298 87.4821C24.2117 87.2243 24.1833 86.982 24.1601 86.7293C24.3899 86.6236 24.6248 86.5205 24.8495 86.4122C27.9161 84.9555 30.755 83.0623 33.2773 80.7918C35.8004 83.0625 38.6401 84.9557 41.7077 86.4122C41.9323 86.5205 42.1673 86.6236 42.3945 86.7293C42.3739 86.9871 42.3455 87.2449 42.3274 87.4821C42.0563 90.8624 42.2781 94.2642 42.9858 97.5808C39.7554 98.6285 36.694 100.138 33.897 102.062C33.6904 102.201 33.4839 102.353 33.2773 102.497C33.0707 102.353 32.8667 102.201 32.6602 102.062C29.8628 100.138 26.8015 98.629 23.5714 97.5808C24.2839 94.2587 24.51 90.851 24.2427 87.4641L24.2298 87.4821ZM33.267 103.503C40.2617 108.548 46.877 116.394 52.9525 126.853C46.926 137.321 43.3989 146.979 42.4642 155.59L42.0563 155.402C39.0792 153.989 36.3216 152.155 33.8686 149.957C36.3425 147.609 38.3099 144.781 39.6498 141.647C43.4274 132.623 41.181 122.107 33.8195 113.803C33.6388 113.599 33.4554 113.393 33.267 113.189C33.0785 113.393 32.8978 113.599 32.7144 113.803C25.3556 122.117 23.1092 132.623 26.8841 141.647C28.2248 144.781 30.1931 147.609 32.6679 149.957C30.2192 152.146 27.4689 153.973 24.5009 155.384C24.3666 155.448 24.2272 155.507 24.0904 155.572C23.1531 146.961 19.6286 137.303 13.6046 126.835C19.6776 116.376 26.2928 108.53 33.2799 103.485L33.267 103.503ZM33.267 149.394C30.8599 147.118 28.9459 144.372 27.6433 141.327C24 132.623 26.1689 122.468 33.267 114.403C40.3676 122.468 42.534 132.623 38.8933 141.327C37.5914 144.365 35.6812 147.105 33.2799 149.379L33.267 149.394ZM24.2298 157.206C24.2117 156.949 24.1833 156.691 24.1601 156.454C24.3899 156.348 24.6248 156.245 24.8495 156.136C27.9161 154.68 30.755 152.787 33.2773 150.516C35.8004 152.787 38.6401 154.68 41.7077 156.136C41.9323 156.245 42.1673 156.348 42.3945 156.454C42.3739 156.711 42.3455 156.969 42.3274 157.206C42.0563 160.587 42.2781 163.988 42.9858 167.305C39.7554 168.353 36.694 169.862 33.897 171.786C33.6904 171.925 33.4839 172.077 33.2773 172.222C33.0707 172.077 32.8667 171.925 32.6602 171.786C29.8628 169.862 26.8015 168.353 23.5714 167.305C24.2836 163.984 24.5097 160.577 24.2427 157.191L24.2298 157.206ZM53.6652 196.98C65.7569 196.957 75.8941 195.175 83.8313 191.682C83.8442 191.831 83.8623 191.981 83.8726 192.13C84.1352 195.409 83.9239 198.709 83.2452 201.927C79.9716 200.963 76.5353 200.676 73.1468 201.084C63.4279 202.33 55.4313 209.53 51.9042 220.052C51.8164 220.31 51.7286 220.568 51.646 220.825C51.9042 220.887 52.1857 220.944 52.4568 220.998C63.3453 223.205 73.5883 219.892 79.5296 212.111C81.5777 209.386 83.0468 206.271 83.8468 202.959C86.9793 203.981 89.9482 205.449 92.6619 207.316C92.7833 207.398 92.9202 207.489 93.0286 207.574C86.0286 212.691 79.416 220.568 73.3482 231.012C61.2384 230.989 51.127 229.189 43.2543 225.665C44.1529 217.095 47.649 207.45 53.6781 196.964L53.6652 196.98ZM83.0593 202.732C82.2887 205.951 80.865 208.978 78.8763 211.627C73.1468 219.129 63.2549 222.334 52.7098 220.227C56.1543 210.054 63.8798 203.103 73.2501 201.902C76.548 201.497 79.8939 201.775 83.0799 202.716L83.0593 202.732ZM84.0327 202.17C84.7399 198.853 84.9625 195.452 84.6937 192.071C84.6756 191.813 84.6447 191.568 84.624 191.318C84.8512 191.21 85.0862 191.109 85.3108 191.001C88.3782 189.544 91.2178 187.651 93.7412 185.381C96.2647 187.651 99.1043 189.544 102.172 191.001C102.396 191.109 102.629 191.21 102.858 191.318C102.835 191.576 102.807 191.834 102.789 192.071C102.519 195.452 102.741 198.853 103.45 202.17C100.219 203.216 97.1577 204.724 94.3609 206.648C94.1518 206.79 93.9478 206.939 93.7412 207.086C93.5347 206.939 93.3281 206.79 93.1215 206.648C90.3321 204.721 87.2776 203.207 84.0534 202.154L84.0327 202.17ZM94.8205 207.326C97.5343 205.459 100.503 203.992 103.636 202.969C104.436 206.282 105.905 209.396 107.953 212.122C113.892 219.902 124.137 223.208 135.026 221.009C135.284 220.954 135.565 220.898 135.834 220.836C135.754 220.578 135.666 220.32 135.576 220.062C132.046 209.541 124.049 202.34 114.333 201.095C110.945 200.687 107.508 200.974 104.235 201.938C103.555 198.719 103.344 195.42 103.607 192.141C103.607 191.991 103.636 191.842 103.649 191.692C111.586 195.186 121.723 196.967 133.815 196.99C139.849 207.476 143.348 217.121 144.226 225.688C136.353 229.212 126.242 231.012 114.129 231.035C108.064 220.591 101.451 212.715 94.4513 207.597C94.5959 207.486 94.7173 207.396 94.8412 207.313L94.8205 207.326ZM104.423 202.729C107.602 201.784 110.942 201.502 114.235 201.899C123.608 203.101 131.333 210.051 134.775 220.225C124.233 222.331 114.341 219.126 108.611 211.624C106.627 208.971 105.208 205.939 104.444 202.716L104.423 202.729ZM174.616 196.977C186.708 196.954 196.845 195.173 204.782 191.679C204.795 191.829 204.813 191.978 204.824 192.128C205.087 195.407 204.876 198.706 204.196 201.925C200.923 200.961 197.486 200.674 194.098 201.082C184.382 202.327 176.385 209.528 172.855 220.049C172.768 220.307 172.68 220.565 172.597 220.823C172.855 220.885 173.134 220.942 173.405 220.996C184.294 223.203 194.537 219.89 200.478 212.109C202.526 209.383 203.995 206.269 204.795 202.956C207.928 203.979 210.897 205.446 213.61 207.313C213.734 207.396 213.869 207.486 213.977 207.571C206.977 212.689 200.365 220.565 194.299 231.009C182.187 230.986 172.076 229.187 164.203 225.662C165.107 217.095 168.603 207.45 174.637 196.964L174.616 196.977ZM204.01 202.729C203.24 205.949 201.816 208.976 199.827 211.624C194.098 219.126 184.206 222.331 173.663 220.225C177.105 210.051 184.831 203.101 194.204 201.899C197.501 201.496 200.846 201.774 204.031 202.716L204.01 202.729ZM204.984 202.167C205.692 198.851 205.915 195.449 205.645 192.068C205.627 191.811 205.598 191.566 205.575 191.316C205.805 191.207 206.037 191.107 206.262 190.999C209.329 189.542 212.169 187.648 214.692 185.378C217.216 187.648 220.055 189.542 223.123 190.999C223.347 191.107 223.582 191.207 223.81 191.316C223.789 191.573 223.758 191.831 223.74 192.068C223.471 195.449 223.694 198.85 224.401 202.167C221.17 203.213 218.109 204.722 215.312 206.646C215.105 206.787 214.899 206.937 214.692 207.084C214.486 206.937 214.282 206.787 214.073 206.646C211.283 204.719 208.229 203.206 205.004 202.154L204.984 202.167ZM215.772 207.324C218.485 205.456 221.454 203.989 224.587 202.966C225.387 206.279 226.856 209.393 228.904 212.119C234.843 219.9 245.088 223.205 255.977 221.006C256.248 220.952 256.516 220.895 256.788 220.833C256.705 220.575 256.617 220.318 256.529 220.06C253.002 209.538 245.003 202.337 235.287 201.092C231.898 200.684 228.462 200.971 225.188 201.935C224.51 198.716 224.298 195.417 224.561 192.138C224.561 191.989 224.589 191.839 224.602 191.689C232.539 195.183 242.677 196.964 254.768 196.988C260.805 207.473 264.301 217.118 265.179 225.685C257.307 229.21 247.195 231.009 235.085 231.032C229.018 220.588 222.405 212.712 215.405 207.594C215.547 207.486 215.671 207.396 215.792 207.313L215.772 207.324ZM225.385 202.716C228.564 201.772 231.903 201.489 235.196 201.886C244.567 203.088 252.292 210.038 255.737 220.212C245.192 222.318 235.3 219.114 229.57 211.611C227.581 208.963 226.156 205.936 225.385 202.716ZM275.18 172.206C274.973 172.062 274.766 171.91 274.56 171.77C271.763 169.846 268.702 168.337 265.471 167.29C266.179 163.973 266.401 160.571 266.129 157.191C266.111 156.933 266.083 156.675 266.062 156.438C266.29 156.332 266.524 156.229 266.749 156.121C269.817 154.664 272.656 152.771 275.18 150.501C277.702 152.771 280.541 154.664 283.607 156.121C283.832 156.229 284.067 156.332 284.297 156.438C284.273 156.696 284.245 156.954 284.227 157.191C283.957 160.571 284.179 163.973 284.885 167.29C281.655 168.338 278.594 169.847 275.797 171.77C275.6 171.91 275.396 172.062 275.19 172.206H275.18ZM269.564 141.312C265.923 132.608 268.089 122.453 275.19 114.388C282.288 122.453 284.457 132.608 280.814 141.312C279.511 144.356 277.597 147.102 275.19 149.379C272.782 147.102 270.867 144.356 269.564 141.312ZM284.387 155.572C284.25 155.507 284.111 155.448 283.977 155.384C281 153.97 278.243 152.136 275.789 149.938C278.264 147.592 280.231 144.764 281.57 141.629C285.348 132.605 283.101 122.089 275.742 113.785C275.559 113.581 275.378 113.375 275.19 113.171C275.001 113.375 274.818 113.581 274.637 113.785C267.276 122.099 265.029 132.605 268.807 141.629C270.147 144.763 272.114 147.591 274.588 149.938C272.135 152.137 269.378 153.971 266.401 155.384L265.993 155.572C265.053 146.961 261.531 137.303 255.504 126.835C261.58 116.376 268.195 108.53 275.19 103.485C282.182 108.53 288.797 116.376 294.873 126.835C288.849 137.303 285.324 146.961 284.387 155.572ZM275.19 102.479C274.983 102.335 274.777 102.183 274.57 102.044C271.773 100.119 268.712 98.6099 265.481 97.5628C266.189 94.2461 266.411 90.8444 266.14 87.4641C266.122 87.2063 266.093 86.9639 266.073 86.7113C266.3 86.6056 266.535 86.5024 266.759 86.3941C269.827 84.9376 272.667 83.0444 275.19 80.7737C277.712 83.0442 280.551 84.9374 283.618 86.3941C283.842 86.5024 284.077 86.6056 284.307 86.7113C284.284 86.9691 284.255 87.2269 284.237 87.4641C283.968 90.8444 284.189 94.2459 284.896 97.5628C281.666 98.6109 278.604 100.12 275.807 102.044C275.6 102.183 275.396 102.335 275.19 102.479ZM269.564 71.5851C265.923 62.8812 268.089 52.7257 275.19 44.6612C282.288 52.7257 284.457 62.8812 280.814 71.5851C279.511 74.6297 277.597 77.3752 275.19 79.6522C272.782 77.3752 270.867 74.6297 269.564 71.5851ZM284.387 85.845C284.25 85.7805 284.111 85.7212 283.977 85.6568C281 84.2427 278.243 82.4089 275.789 80.2117C278.265 77.8646 280.232 75.0357 281.57 71.8996C285.348 62.876 283.101 52.3596 275.742 44.0553C275.559 43.8516 275.378 43.6454 275.19 43.4443C275.001 43.6454 274.818 43.8516 274.637 44.0553C267.276 52.3699 265.029 62.876 268.807 71.8996C270.146 75.0342 272.114 77.862 274.588 80.2091C272.135 82.4075 269.378 84.2414 266.401 85.6542L265.993 85.8424C265.053 77.2313 261.531 67.5734 255.504 57.106C261.58 46.6464 268.195 38.801 275.19 33.7555C282.182 38.801 288.797 46.6464 294.873 57.106C288.849 67.576 285.324 77.2339 284.387 85.845ZM265.321 17.7966C265.583 21.0754 265.372 24.3749 264.694 27.5936C261.42 26.6285 257.984 26.3416 254.595 26.7506C244.876 27.9958 236.88 35.1967 233.35 45.7182C233.265 45.976 233.177 46.2339 233.092 46.4917C233.35 46.5536 233.632 46.6077 233.9 46.6618C244.791 48.8713 255.034 45.5558 260.976 37.7774C263.024 35.0511 264.492 31.9357 265.29 28.6223C268.423 29.6448 271.392 31.1122 274.105 32.9794L274.475 33.2373C267.475 38.3549 260.862 46.2313 254.794 56.6729C242.684 56.6523 232.57 54.8527 224.7 51.3283C225.578 42.7585 229.074 33.1161 235.111 22.6306C247.2 22.6074 257.338 20.8259 265.277 17.3325C265.293 17.5001 265.311 17.6496 265.321 17.7966ZM264.508 28.398C263.736 31.6177 262.313 34.6456 260.325 37.2953C254.595 44.7978 244.704 48.0025 234.158 45.8935C237.603 35.7226 245.328 28.7693 254.699 27.5678C257.991 27.1739 261.329 27.4564 264.508 28.398ZM215.792 -1.8672C218.507 -3.73282 221.477 -5.19851 224.61 -6.21917C225.411 -2.90606 226.88 0.209156 228.927 2.93594C234.866 10.7143 245.112 14.0221 256 11.8203C256.271 11.7662 256.54 11.7095 256.811 11.6502C256.728 11.3924 256.64 11.1345 256.553 10.8638C253.025 0.344873 245.026 -6.85598 235.31 -8.10382C231.921 -8.51195 228.485 -8.22418 225.212 -7.25817C224.533 -10.477 224.322 -13.7764 224.584 -17.0553C224.584 -17.2022 224.613 -17.3543 224.626 -17.5039C232.563 -14.0078 242.7 -12.2289 254.792 -12.2031C260.828 -1.72025 264.325 7.92471 265.202 16.492C257.33 20.0164 247.218 21.8159 235.109 21.8391C229.041 11.3949 222.428 3.52118 215.428 -1.5965C215.547 -1.69189 215.671 -1.7847 215.792 -1.8672ZM225.385 -6.4641C228.564 -7.40855 231.903 -7.69111 235.196 -7.29427C244.567 -6.09284 252.292 0.860508 255.737 11.0314C245.192 13.1378 235.3 9.93311 229.57 2.4332C227.58 -0.215675 226.156 -3.24381 225.385 -6.4641ZM214.703 -1.10665C221.695 3.93885 228.313 11.7842 234.388 22.2465C228.362 32.7139 224.835 42.3563 223.9 50.9829C223.766 50.9184 223.624 50.8591 223.492 50.7947C220.519 49.3785 217.765 47.543 215.315 45.3444C217.788 42.9961 219.755 40.1686 221.096 37.0349C224.873 28.0113 222.627 17.4923 215.266 9.1906C215.085 8.98434 214.901 8.78067 214.713 8.577C214.524 8.78067 214.344 8.98434 214.16 9.1906C206.799 17.5026 204.553 28.0113 208.33 37.0349C209.671 40.1686 211.638 42.9961 214.111 45.3444C211.658 47.5414 208.902 49.3751 205.926 50.7895C205.792 50.854 205.65 50.9132 205.516 50.9777C204.578 42.364 201.054 32.7087 195.03 22.2413C201.113 11.7842 207.721 3.93885 214.713 -1.10665H214.703ZM174.627 -12.2134C186.718 -12.2392 196.856 -14.0182 204.793 -17.5142C204.806 -17.3646 204.824 -17.2125 204.834 -17.0656C205.097 -13.7867 204.886 -10.4871 204.207 -7.26849C200.933 -8.2345 197.497 -8.52227 194.108 -8.11413C184.392 -6.86629 176.395 0.334558 172.866 10.8535C172.778 11.1113 172.69 11.3692 172.607 11.6399C172.866 11.6992 173.145 11.7559 173.416 11.81C184.304 14.0195 194.547 10.704 200.488 2.92563C202.539 0.202982 204.013 -2.90868 204.819 -6.21917C207.951 -5.19667 210.92 -3.72925 213.634 -1.86205C213.758 -1.77955 213.892 -1.68674 214 -1.60423C207 3.51345 200.388 11.3872 194.323 21.8314C182.21 21.8082 172.099 20.0086 164.226 16.4843C165.107 7.9144 168.603 -1.73056 174.637 -12.2134H174.627ZM204.021 -6.4641C203.25 -3.24401 201.827 -0.215891 199.838 2.4332C194.108 9.93311 184.216 13.1378 173.674 11.0314C177.116 0.860508 184.841 -6.09284 194.214 -7.29427C197.509 -7.69205 200.85 -7.40948 204.031 -6.4641H204.021ZM164.094 17.7966C164.094 17.6496 164.123 17.4975 164.136 17.3505C172.076 20.844 182.21 22.6255 194.302 22.6487C200.339 33.1341 203.845 42.7662 204.728 51.3464C196.853 54.8836 186.739 56.6703 174.629 56.6884C168.564 46.2467 161.949 38.3704 154.949 33.2527L155.318 32.9949C158.032 31.1283 161.001 29.661 164.133 28.6378C164.932 31.9517 166.401 35.0673 168.45 37.7929C174.389 45.5713 184.632 48.8791 195.523 46.6773C195.781 46.6232 196.06 46.569 196.331 46.5071C196.249 46.2493 196.164 45.9915 196.073 45.7337C192.543 35.2122 184.547 28.0113 174.828 26.766C171.44 26.3568 168.005 26.6437 164.732 27.6091C164.052 24.3853 163.841 21.0805 164.105 17.7966H164.094ZM164.91 28.398C168.09 27.4558 171.429 27.1733 174.722 27.5678C184.092 28.7693 191.818 35.7226 195.262 45.8935C184.717 48.0025 174.825 44.7978 169.098 37.2953C167.111 34.6464 165.689 31.6181 164.921 28.398H164.91ZM145.178 17.7398C145.16 17.482 145.132 17.2371 145.109 16.9844C145.338 16.8787 145.573 16.7756 145.798 16.6673C148.868 15.2137 151.71 13.3231 154.236 11.0546C156.76 13.3235 159.6 15.2158 162.667 16.6725C162.891 16.7808 163.126 16.8839 163.356 16.9896C163.333 17.2474 163.304 17.5052 163.286 17.745C163.015 21.1253 163.237 24.527 163.945 27.8437C160.714 28.8898 157.653 30.3983 154.856 32.322C154.649 32.4612 154.443 32.6133 154.236 32.7577C154.032 32.6133 153.826 32.4612 153.619 32.322C150.823 30.3978 147.761 28.8893 144.53 27.8437C145.238 24.5253 145.46 21.1219 145.189 17.7398H145.178ZM144.36 17.7966C144.621 21.0755 144.409 24.375 143.73 27.5936C140.457 26.6282 137.022 26.3413 133.634 26.7506C123.915 27.9958 115.918 35.1967 112.389 45.7182C112.301 45.976 112.216 46.2339 112.131 46.4917C112.402 46.5536 112.67 46.6077 112.939 46.6618C123.83 48.8713 134.073 45.5558 140.012 37.7774C142.061 35.0518 143.531 31.9362 144.329 28.6223C147.461 29.6455 150.43 31.1129 153.144 32.9794L153.513 33.2373C146.513 38.3549 139.898 46.2313 133.833 56.6729C121.723 56.6523 111.609 54.8527 103.736 51.3283C104.617 42.7585 108.113 33.1161 114.15 22.6306C126.239 22.6074 136.376 20.8259 144.316 17.3325C144.342 17.5001 144.36 17.6496 144.37 17.7966H144.36ZM143.544 28.398C142.774 31.6185 141.351 34.6468 139.361 37.2953C133.634 44.7978 123.742 48.0025 113.197 45.8935C116.641 35.7226 124.367 28.7693 133.737 27.5678C137.032 27.1726 140.373 27.4551 143.554 28.398H143.544ZM94.8412 -1.8672C97.555 -3.73441 100.524 -5.20183 103.656 -6.22433C104.457 -2.91122 105.926 0.203995 107.974 2.93078C113.912 10.7091 124.158 14.0169 135.046 11.8152C135.305 11.761 135.586 11.7043 135.855 11.645C135.774 11.3872 135.687 11.1294 135.596 10.8587C132.067 0.339712 124.07 -6.86114 114.354 -8.10897C110.965 -8.51711 107.529 -8.22934 104.255 -7.26333C103.576 -10.482 103.364 -13.7816 103.628 -17.0604C103.628 -17.2074 103.656 -17.3595 103.669 -17.509C111.606 -14.013 121.744 -12.2341 133.835 -12.2083C139.87 -1.7254 143.368 7.91956 144.246 16.4868C136.374 20.0112 126.262 21.8108 114.15 21.834C108.085 11.3898 101.472 3.51603 94.472 -1.60165C94.5959 -1.69189 94.7173 -1.7847 94.8412 -1.8672ZM104.444 -6.4641C107.623 -7.40891 110.963 -7.69148 114.256 -7.29427C123.629 -6.09284 131.354 0.860508 134.796 11.0314C124.253 13.1378 114.362 9.93311 108.632 2.4332C106.641 -0.21546 105.216 -3.24361 104.444 -6.4641ZM93.7619 -1.10665C100.754 3.93885 107.372 11.7842 113.445 22.2465C107.421 32.7139 103.891 42.3563 102.959 50.9829C102.825 50.9184 102.683 50.8591 102.549 50.7947C99.5732 49.3803 96.8167 47.5465 94.3635 45.3495C96.8404 43.0023 98.8112 40.1747 100.155 37.0401C103.933 28.0165 101.686 17.4975 94.3248 9.19576C94.1415 8.9895 93.9607 8.78583 93.7722 8.58215C93.5837 8.78583 93.4004 8.9895 93.2197 9.19576C85.8582 17.5078 83.6119 28.0165 87.3894 37.0401C88.7269 40.1715 90.6906 42.9973 93.1603 45.3444C90.7066 47.542 87.9491 49.3758 84.9726 50.7895C84.8409 50.854 84.6989 50.9132 84.5646 50.9777C83.6299 42.3692 80.1028 32.7113 74.0763 22.2465C80.1519 11.7842 86.7697 3.93885 93.7619 -1.10665ZM53.6781 -12.2134C65.7699 -12.2392 75.907 -14.0182 83.8442 -17.5142C83.8571 -17.3646 83.8752 -17.2125 83.8855 -17.0656C84.1476 -13.7867 83.9364 -10.4873 83.2581 -7.26849C79.9848 -8.2345 76.5484 -8.52227 73.1597 -8.11413C63.4408 -6.86629 55.4442 0.334558 51.9172 10.8535C51.8294 11.1113 51.7416 11.3692 51.6589 11.6399C51.9172 11.6992 52.1986 11.7559 52.4697 11.81C63.3582 14.0195 73.6012 10.704 79.5425 2.92563C81.5917 0.202553 83.0633 -2.90908 83.8675 -6.21917C87 -5.19667 89.9688 -3.72925 92.6826 -1.86205C92.804 -1.77955 92.9408 -1.68674 93.0492 -1.60423C86.0493 3.51345 79.4367 11.3872 73.3688 21.8314C61.259 21.8082 51.1477 20.0086 43.275 16.4843C44.1529 7.9144 47.649 -1.73056 53.6781 -12.2134ZM83.0722 -6.4641C82.3016 -3.24401 80.878 -0.215891 78.8893 2.4332C73.1597 9.93311 63.2679 13.1378 52.7227 11.0314C56.1672 0.860508 63.8927 -6.09284 73.263 -7.29427C76.5577 -7.69183 79.8991 -7.40926 83.0799 -6.4641H83.0722ZM43.1459 17.7966C43.1459 17.6496 43.1743 17.4975 43.1872 17.3505C51.127 20.844 61.2616 22.6255 73.3533 22.6487C79.3902 33.1341 82.8863 42.7765 83.7642 51.3464C75.9018 54.8836 65.7879 56.6703 53.6781 56.6884C47.6129 46.2467 40.9976 38.3704 33.9977 33.2527L34.3669 32.9949C37.0807 31.1277 40.0495 29.6603 43.182 28.6378C43.9805 31.9512 45.4488 35.0666 47.4967 37.7929C53.4354 45.5713 63.681 48.8791 74.5721 46.6773C74.8303 46.6232 75.1091 46.569 75.3803 46.5071C75.2976 46.2493 75.2098 45.9915 75.1221 45.7337C71.5924 35.2122 63.5958 28.0113 53.8769 26.766C50.4884 26.3571 47.052 26.644 43.7785 27.6091C43.0995 24.3852 42.889 21.0804 43.1536 17.7966H43.1459ZM43.9592 28.398C47.1389 27.4561 50.478 27.1736 53.771 27.5678C63.1413 28.7693 70.8668 35.7226 74.3113 45.8935C63.7662 48.0025 53.8743 44.7978 48.1447 37.2953C46.1588 34.6452 44.7371 31.6173 43.967 28.398H43.9592ZM24.2427 17.7398C24.2246 17.482 24.1962 17.2371 24.173 16.9844C24.4028 16.8787 24.6378 16.7756 24.8624 16.6673C27.9245 15.2113 30.7597 13.3209 33.2799 11.0546C35.8039 13.3235 38.6434 15.2158 41.7103 16.6725C41.9349 16.7808 42.1699 16.8839 42.3971 16.9896C42.3765 17.2474 42.3481 17.5052 42.33 17.745C42.0592 21.1253 42.281 24.527 42.9884 27.8437C39.7577 28.8893 36.6961 30.3978 33.8996 32.322C33.693 32.4612 33.4864 32.6133 33.2799 32.7577C33.0733 32.6133 32.8693 32.4612 32.6628 32.322C29.866 30.3983 26.8045 28.8898 23.574 27.8437C24.2842 24.5256 24.5094 21.1224 24.2427 17.7398ZM-26.474 -1.5965C-26.3501 -1.68158 -26.2158 -1.77439 -26.1048 -1.85432C-23.3912 -3.72192 -20.4223 -5.18937 -17.2896 -6.21144C-16.4904 -2.89787 -15.0213 0.217604 -12.9724 2.94368C-7.03371 10.722 3.20928 14.0298 14.1004 11.8281C14.3586 11.7739 14.64 11.7172 14.9086 11.6579C14.8259 11.4001 14.7407 11.1423 14.6504 10.8716C11.1207 0.352608 3.12407 -6.84824 -6.59219 -8.09608C-9.98087 -8.50422 -13.4173 -8.21645 -16.6906 -7.25044C-17.3701 -10.4691 -17.5814 -13.7687 -17.318 -17.0475C-17.318 -17.1945 -17.2896 -17.3466 -17.2793 -17.4961C-9.3395 -14.0001 0.795078 -12.2212 12.8894 -12.1954C18.9237 -1.71251 22.4198 7.93245 23.3002 16.4997C15.4276 20.0241 5.31367 21.8237 -6.79615 21.8469C-12.864 11.3846 -19.4766 3.51088 -26.4791 -1.60681L-26.474 -1.5965ZM-16.5021 -6.45378C-13.323 -7.3986 -9.98334 -7.68117 -6.69031 -7.28396C2.67996 -6.08253 10.4055 0.870823 13.8499 11.0417C3.30741 13.1481 -6.58701 9.94343 -12.314 2.44351C-14.3077 -0.207775 -15.7349 -3.23959 -16.5073 -6.4641L-16.5021 -6.45378ZM-6.79099 22.6564C5.30077 22.6332 15.4379 20.8517 23.3777 17.3583C23.3777 17.5052 23.4061 17.6573 23.419 17.8043C23.6805 21.0833 23.4683 24.3827 22.789 27.6014C19.5156 26.6362 16.0791 26.3493 12.6906 26.7583C2.97433 28.0036 -5.0223 35.2044 -8.55196 45.726C-8.63975 45.9838 -8.72496 46.2416 -8.81017 46.4994C-8.55196 46.5613 -8.27052 46.6154 -8.00198 46.6696C2.88911 48.8791 13.1321 45.5635 19.0708 37.7852C21.1197 35.0591 22.5888 31.9436 23.388 28.6301C26.5203 29.6532 29.489 31.1206 32.2032 32.9872L32.5724 33.245C25.5699 38.3627 18.9572 46.239 12.892 56.6806C0.782169 56.66 -9.33175 54.8604 -17.2044 51.3361C-16.3214 42.7662 -12.8252 33.1341 -6.79099 22.6564ZM22.6031 28.4058C21.8325 31.6258 20.4089 34.654 18.4202 37.303C12.6932 44.8055 2.79874 48.0102 -7.74378 45.9013C-4.29932 35.7304 3.42619 28.777 12.7965 27.5756C16.0873 27.1792 19.4246 27.4591 22.6031 28.398V28.4058ZM-26.4791 68.12C-26.3552 68.0349 -26.221 67.9421 -26.1099 67.8622C-23.3964 65.9946 -20.4275 64.5271 -17.2948 63.5051C-16.4959 66.818 -15.0267 69.9326 -12.9776 72.6576C-7.03888 80.4385 3.20411 83.7438 14.0952 81.5446C14.3534 81.4904 14.6349 81.4337 14.9034 81.3744C14.8208 81.1166 14.7356 80.8588 14.6452 80.601C11.1155 70.0794 3.11893 62.8811 -6.59733 61.6333C-9.98601 61.2252 -13.4225 61.5129 -16.6958 62.479C-17.3753 59.2603 -17.5866 55.9607 -17.3232 52.6819C-17.3232 52.5323 -17.2948 52.3828 -17.2845 52.2333C-9.34464 55.7293 0.789909 57.5082 12.8842 57.5314C18.9185 68.0169 22.4146 77.6618 23.2951 86.2291C15.4224 89.7535 5.30851 91.5531 -6.80132 91.5763C-12.864 81.1115 -19.4766 73.2377 -26.4791 68.12ZM-16.5073 63.2627C-13.3281 62.3179 -9.98848 62.0353 -6.69545 62.4325C2.67482 63.634 10.4003 70.5873 13.8448 80.7582C3.30224 82.8646 -6.59218 79.6599 -12.3192 72.16C-14.3098 69.5114 -15.7351 66.4832 -16.5073 63.2627ZM-6.79099 92.3755C5.30077 92.3523 15.4379 90.5708 23.3777 87.0774C23.3777 87.2243 23.4061 87.3764 23.419 87.5234C23.6804 90.8023 23.4682 94.1018 22.789 97.3204C19.5156 96.3553 16.0791 96.0684 12.6906 96.4774C2.97433 97.7227 -5.0223 104.924 -8.55196 115.445C-8.63975 115.703 -8.72496 115.961 -8.81017 116.219C-8.55196 116.28 -8.27052 116.335 -8.00198 116.389C2.88911 118.598 13.1321 115.283 19.0708 107.504C21.1197 104.778 22.5888 101.663 23.388 98.3492C26.5203 99.3723 29.489 100.84 32.2032 102.706L32.5724 102.964C25.5699 108.082 18.9572 115.958 12.892 126.4C0.782169 126.377 -9.33175 124.58 -17.2044 121.055C-16.3214 112.503 -12.8252 102.858 -6.79099 92.3755ZM22.6031 98.1248C21.8325 101.345 20.4089 104.373 18.4202 107.022C12.6932 114.525 2.79874 117.729 -7.74378 115.62C-4.29932 105.449 3.42619 98.4961 12.7965 97.2947C16.0878 96.8998 19.4253 97.1823 22.6031 98.1248ZM-26.4791 137.847C-26.3552 137.759 -26.221 137.669 -26.1099 137.589C-23.3964 135.721 -20.4275 134.254 -17.2948 133.232C-16.4959 136.545 -15.0267 139.659 -12.9776 142.384C-7.03888 150.165 3.20411 153.471 14.0952 151.271C14.3534 151.217 14.6349 151.161 14.9034 151.099C14.8208 150.841 14.7356 150.583 14.6452 150.325C11.1155 139.804 3.11893 132.603 -6.59733 131.358C-9.98601 130.949 -13.4225 131.237 -16.6958 132.203C-17.3753 128.985 -17.5866 125.685 -17.3232 122.406C-17.3232 122.257 -17.2948 122.107 -17.2845 121.958C-9.34464 125.454 0.789909 127.232 12.8842 127.256C18.9185 137.741 22.4146 147.386 23.2951 155.953C15.4224 159.478 5.30851 161.277 -6.80132 161.301C-12.864 150.838 -19.4766 142.962 -26.4791 137.847ZM-16.5073 133.002C-13.3281 132.058 -9.98848 131.775 -6.69545 132.172C2.67482 133.374 10.4003 140.327 13.8448 150.498C3.30224 152.604 -6.59218 149.4 -12.3192 141.897C-14.3102 139.25 -15.7356 136.222 -16.5073 133.002ZM-6.79099 162.115C5.30077 162.092 15.4379 160.31 23.3777 156.814C23.3777 156.964 23.4061 157.116 23.419 157.263C23.6804 160.542 23.4682 163.841 22.789 167.06C19.5156 166.095 16.0793 165.807 12.6906 166.215C2.97433 167.462 -5.0223 174.663 -8.55196 185.185C-8.63975 185.443 -8.72496 185.7 -8.81017 185.958C-8.55196 186.02 -8.27052 186.074 -8.00198 186.128C2.88911 188.338 13.1321 185.022 19.0708 177.244C21.1197 174.518 22.5888 171.402 23.388 168.089C26.5203 169.112 29.489 170.579 32.2032 172.446L32.5724 172.704C25.5699 177.821 18.9572 185.695 12.892 196.139C0.782169 196.116 -9.33175 194.319 -17.2044 190.795C-16.3214 182.23 -12.8252 172.585 -6.79099 162.102V162.115ZM22.6031 167.865C21.8325 171.085 20.4089 174.113 18.4202 176.762C12.6932 184.264 2.79874 187.469 -7.74378 185.36C-4.29932 175.189 3.42619 168.236 12.7965 167.034C16.0869 166.635 19.4244 166.913 22.6031 167.852V167.865ZM-26.4791 207.584C-26.3552 207.499 -26.221 207.409 -26.1099 207.326C-23.3964 205.459 -20.4275 203.991 -17.2948 202.969C-16.4959 206.282 -15.0267 209.397 -12.9776 212.122C-7.03888 219.902 3.20411 223.208 14.0952 221.009C14.3534 220.954 14.6349 220.898 14.9034 220.836C14.8208 220.578 14.7356 220.32 14.6452 220.062C11.1155 209.541 3.11893 202.34 -6.59733 201.095C-9.98585 200.687 -13.4222 200.974 -16.6958 201.938C-17.3756 198.719 -17.5869 195.42 -17.3232 192.141C-17.3232 191.991 -17.2948 191.842 -17.2845 191.692C-9.34464 195.186 0.789909 196.967 12.8842 196.99C18.9185 207.476 22.4146 217.121 23.2951 225.688C15.4224 229.212 5.30851 231.012 -6.80132 231.035C-12.864 220.565 -19.4766 212.689 -26.4791 207.571V207.584ZM-16.5073 202.729C-13.3281 201.784 -9.98848 201.502 -6.69545 201.899C2.67482 203.101 10.4003 210.051 13.8448 220.225C3.30224 222.331 -6.59218 219.126 -12.3192 211.624C-14.3113 208.972 -15.7367 205.941 -16.5073 202.716V202.729ZM12.8946 265.895C0.784756 265.871 -9.32916 264.074 -17.2018 260.55C-16.3214 251.98 -12.8123 242.335 -6.79099 231.852C5.30077 231.829 15.4379 230.048 23.3777 226.552C23.3777 226.701 23.4061 226.853 23.419 227C23.6804 230.279 23.4682 233.579 22.789 236.797C19.5156 235.832 16.0793 235.544 12.6906 235.952C2.97433 237.199 -5.0223 244.4 -8.55196 254.922C-8.63975 255.18 -8.72496 255.438 -8.81017 255.695C-8.55196 255.757 -8.27052 255.811 -8.00198 255.866C2.88911 258.075 13.1321 254.759 19.0708 246.981C21.1197 244.255 22.5888 241.14 23.388 237.826C26.5203 238.849 29.489 240.317 32.2032 242.183L32.5724 242.441C25.5725 247.553 18.9598 255.427 12.8946 265.871V265.895ZM22.6031 237.602C21.8325 240.822 20.4089 243.85 18.4202 246.499C12.6932 254.001 2.79874 257.204 -7.74378 255.097C-4.29932 244.926 3.42619 237.973 12.7965 236.772C16.0862 236.369 19.4237 236.644 22.6031 237.578V237.602ZM33.285 241.956C33.0785 241.812 32.8745 241.66 32.6679 241.521C29.8706 239.597 26.8093 238.088 23.5791 237.04C24.2855 233.723 24.5073 230.321 24.2375 226.941C24.2195 226.683 24.191 226.425 24.1678 226.188C24.3976 226.082 24.6326 225.979 24.8572 225.871C27.9239 224.414 30.7627 222.521 33.285 220.251C35.8082 222.521 38.6479 224.414 41.7155 225.871C41.9401 225.979 42.175 226.082 42.4023 226.188C42.3816 226.446 42.3532 226.704 42.3351 226.941C42.064 230.321 42.2858 233.723 42.9936 237.04C39.7632 238.087 36.7018 239.597 33.9047 241.521C33.6982 241.637 33.4916 241.802 33.2799 241.933L33.285 241.956ZM53.6833 265.895C47.618 255.45 41.0028 247.59 34.0029 242.459L34.3721 242.201C37.0859 240.334 40.0547 238.867 43.1872 237.844C43.9857 241.157 45.4539 244.273 47.5018 246.999C53.4405 254.777 63.6861 258.085 74.5772 255.884C74.8354 255.829 75.1143 255.775 75.3854 255.713C75.3028 255.456 75.215 255.198 75.1272 254.94C71.5975 244.418 63.6009 237.218 53.8821 235.97C50.4934 235.563 47.0572 235.85 43.7837 236.815C43.1054 233.597 42.8941 230.297 43.1562 227.018C43.1562 226.871 43.1846 226.719 43.1976 226.57C51.1374 230.066 61.2719 231.847 73.3637 231.87C79.4005 242.353 82.8966 251.998 83.7745 260.568C75.9018 264.051 65.7879 265.848 53.6781 265.871L53.6833 265.895ZM43.9722 237.602C47.1516 236.658 50.4909 236.376 53.784 236.772C63.1542 237.973 70.8797 244.926 74.3242 255.097C63.7791 257.204 53.8872 254.001 48.1577 246.499C46.1643 243.843 44.738 240.807 43.967 237.578L43.9722 237.602ZM93.7671 253.991C91.3598 251.715 89.4458 248.971 88.1433 245.927C84.5001 237.223 86.6664 227.065 93.7671 219.003C100.868 227.065 103.034 237.223 99.3908 245.927C98.084 248.963 96.1684 251.699 93.7619 253.968L93.7671 253.991ZM102.964 260.179C102.83 260.117 102.688 260.055 102.554 259.991C99.5785 258.577 96.822 256.744 94.3687 254.548C96.8425 252.199 98.8098 249.371 100.15 246.236C103.927 237.212 101.681 226.696 94.3196 218.392C94.1363 218.185 93.9556 217.982 93.7671 217.778C93.5786 217.982 93.3952 218.185 93.2145 218.392C85.8531 226.704 83.6067 237.212 87.3842 246.236C88.7234 249.371 90.6908 252.2 93.1655 254.548C90.7116 256.745 87.9542 258.578 84.9777 259.991C84.8461 260.055 84.704 260.117 84.5698 260.179C83.6299 251.568 80.108 241.91 74.0815 231.445C80.1571 220.983 86.7749 213.14 93.7671 208.092C100.759 213.137 107.377 220.983 113.45 231.445C107.421 241.892 103.896 251.55 102.959 260.161L102.964 260.179ZM133.851 265.889C121.741 265.866 111.627 264.069 103.754 260.545C104.635 251.975 108.131 242.33 114.168 231.847C126.257 231.824 136.394 230.042 144.334 226.546C144.347 226.696 144.365 226.848 144.375 226.995C144.637 230.274 144.424 233.573 143.745 236.792C140.473 235.827 137.037 235.539 133.649 235.947C123.931 237.194 115.934 244.395 112.404 254.917C112.316 255.175 112.231 255.432 112.146 255.69C112.417 255.752 112.686 255.806 112.954 255.86C123.845 258.07 134.088 254.754 140.027 246.976C142.077 244.25 143.546 241.135 144.344 237.821C147.477 238.844 150.445 240.311 153.159 242.178L153.529 242.436C146.526 247.553 139.919 255.427 133.846 265.871L133.851 265.889ZM143.559 237.596C142.79 240.817 141.366 243.845 139.376 246.494C133.649 253.996 123.758 257.198 113.213 255.092C116.657 244.921 124.382 237.968 133.753 236.766C137.041 236.366 140.377 236.643 143.554 237.578L143.559 237.596ZM154.241 241.951C154.037 241.807 153.831 241.655 153.624 241.515C150.827 239.591 147.766 238.082 144.535 237.034C145.243 233.718 145.465 230.316 145.194 226.936C145.176 226.678 145.147 226.42 145.124 226.183C145.354 226.077 145.589 225.974 145.814 225.866C148.881 224.41 151.719 222.517 154.241 220.245C156.764 222.516 159.604 224.409 162.672 225.866C162.896 225.974 163.131 226.077 163.361 226.183C163.338 226.441 163.309 226.699 163.291 226.936C163.02 230.316 163.242 233.718 163.95 237.034C160.72 238.083 157.658 239.592 154.861 241.515C154.649 241.637 154.443 241.802 154.236 241.933L154.241 241.951ZM174.64 265.889C168.574 255.445 161.959 247.584 154.959 242.454L155.328 242.196C158.042 240.329 161.011 238.862 164.144 237.839C164.942 241.153 166.411 244.268 168.461 246.994C174.399 254.772 184.642 258.08 195.533 255.878C195.792 255.824 196.071 255.77 196.342 255.708C196.259 255.45 196.174 255.193 196.083 254.935C192.554 244.413 184.557 237.212 174.838 235.965C171.451 235.557 168.015 235.845 164.742 236.81C164.063 233.592 163.851 230.292 164.112 227.013C164.112 226.866 164.141 226.714 164.154 226.565C172.094 230.061 182.228 231.842 194.32 231.865C200.357 242.348 203.853 251.993 204.733 260.563C196.853 264.051 186.739 265.848 174.629 265.871L174.64 265.889ZM164.931 237.596C168.11 236.653 171.45 236.371 174.743 236.766C184.113 237.968 191.839 244.921 195.283 255.092C184.738 257.198 174.846 253.996 169.119 246.494C167.122 243.841 165.692 240.806 164.921 237.578L164.931 237.596ZM214.723 253.986C212.316 251.71 210.402 248.965 209.1 245.921C205.456 237.218 207.623 227.06 214.723 218.998C221.824 227.06 223.99 237.218 220.347 245.921C219.039 248.96 217.122 251.698 214.713 253.968L214.723 253.986ZM223.921 260.174C223.786 260.112 223.644 260.05 223.513 259.985C220.536 258.573 217.779 256.74 215.325 254.543C217.799 252.194 219.766 249.366 221.106 246.231C224.884 237.207 222.637 226.691 215.276 218.387C215.095 218.18 214.912 217.977 214.723 217.773C214.535 217.977 214.354 218.18 214.171 218.387C206.809 226.699 204.563 237.207 208.34 246.231C209.681 249.366 211.648 252.194 214.122 254.543C211.668 256.739 208.912 258.572 205.937 259.985C205.802 260.05 205.66 260.112 205.526 260.174C204.589 251.563 201.064 241.905 195.04 231.44C201.113 220.978 207.731 213.135 214.723 208.087C221.716 213.132 228.333 220.978 234.409 231.44C228.372 241.892 224.848 251.55 223.91 260.161L223.921 260.174ZM254.807 265.884C242.697 265.861 232.583 264.064 224.713 260.54C225.591 251.97 229.087 242.325 235.124 231.842C247.213 231.819 257.35 230.037 265.29 226.541C265.29 226.691 265.321 226.843 265.332 226.99C265.594 230.269 265.382 233.568 264.704 236.787C261.431 235.822 257.994 235.534 254.606 235.941C244.887 237.189 236.89 244.39 233.361 254.912C233.275 255.169 233.188 255.427 233.102 255.685C233.361 255.747 233.642 255.801 233.911 255.855C244.802 258.065 255.045 254.749 260.986 246.971C263.034 244.245 264.502 241.129 265.301 237.816C268.433 238.838 271.402 240.306 274.116 242.173L274.485 242.431C267.472 247.553 260.865 255.427 254.797 265.871L254.807 265.884ZM264.518 237.591C263.747 240.811 262.323 243.839 260.335 246.489C254.606 253.991 244.714 257.193 234.169 255.087C237.613 244.916 245.339 237.963 254.709 236.761C257.997 236.363 261.332 236.641 264.508 237.578L264.518 237.591ZM275.2 241.946C274.994 241.802 274.787 241.649 274.58 241.51C271.784 239.586 268.722 238.076 265.492 237.029C266.199 233.713 266.421 230.311 266.15 226.931C266.132 226.673 266.104 226.415 266.083 226.178C266.31 226.072 266.545 225.969 266.77 225.861C269.837 224.404 272.677 222.511 275.2 220.24C277.722 222.511 280.561 224.404 283.628 225.861C283.853 225.969 284.088 226.072 284.317 226.178C284.294 226.436 284.266 226.693 284.248 226.931C283.978 230.311 284.2 233.712 284.906 237.029C281.676 238.077 278.615 239.587 275.817 241.51C275.6 241.637 275.396 241.802 275.19 241.933L275.2 241.946ZM325.687 260.54C317.814 264.064 307.7 265.861 295.591 265.884C289.525 255.44 282.913 247.579 275.91 242.449L276.279 242.191C278.994 240.324 281.962 238.857 285.095 237.834C285.893 241.148 287.362 244.263 289.412 246.989C295.35 254.767 305.594 258.075 316.485 255.873C316.743 255.819 317.022 255.765 317.293 255.703C317.21 255.445 317.125 255.187 317.035 254.93C313.505 244.408 305.508 237.207 295.792 235.959C292.403 235.552 288.967 235.84 285.694 236.805C285.014 233.586 284.802 230.287 285.064 227.008C285.076 226.861 285.095 226.709 285.105 226.559C293.045 230.055 303.179 231.837 315.274 231.86C321.3 242.317 324.794 251.957 325.677 260.527L325.687 260.54ZM285.882 237.594C289.062 236.651 292.401 236.368 295.694 236.764C305.064 237.965 312.79 244.919 316.234 255.089C305.692 257.196 295.797 253.994 290.07 246.491C288.074 243.839 286.645 240.805 285.872 237.578L285.882 237.594ZM325.808 192.13C326.07 195.409 325.858 198.709 325.178 201.927C321.905 200.963 318.468 200.676 315.08 201.084C305.364 202.33 297.367 209.53 293.837 220.052C293.75 220.31 293.664 220.568 293.579 220.825C293.837 220.887 294.119 220.944 294.387 220.998C305.279 223.205 315.522 219.892 321.46 212.111C323.509 209.386 324.978 206.272 325.777 202.959C328.91 203.981 331.879 205.448 334.593 207.316C334.716 207.398 334.838 207.489 334.962 207.574C327.959 212.689 321.347 220.565 315.281 231.009C303.169 230.986 293.058 229.187 285.185 225.662C286.065 217.095 289.562 207.45 295.596 196.964C307.688 196.941 317.825 195.16 325.765 191.666C325.767 191.816 325.785 191.965 325.798 192.115L325.808 192.13ZM324.992 202.732C324.223 205.951 322.799 208.979 320.81 211.627C315.083 219.129 305.188 222.334 294.646 220.227C298.09 210.054 305.816 203.103 315.186 201.902C318.473 201.502 321.807 201.779 324.982 202.716L324.992 202.732ZM325.687 190.815C317.814 194.34 307.7 196.137 295.591 196.16C289.525 185.716 282.913 177.842 275.91 172.724L276.279 172.467C278.994 170.6 281.962 169.133 285.095 168.109C285.893 171.423 287.362 174.539 289.412 177.265C295.35 185.043 305.594 188.351 316.485 186.149C316.743 186.095 317.022 186.041 317.293 185.979C317.21 185.721 317.125 185.463 317.035 185.205C313.505 174.684 305.508 167.483 295.792 166.235C292.403 165.828 288.967 166.116 285.694 167.081C285.014 163.862 284.802 160.563 285.064 157.284C285.076 157.137 285.095 156.985 285.105 156.835C293.045 160.331 303.179 162.113 315.274 162.136C321.3 172.585 324.794 182.23 325.677 190.8L325.687 190.815ZM285.882 167.87C289.062 166.926 292.401 166.644 295.694 167.04C305.064 168.241 312.79 175.194 316.234 185.365C305.692 187.474 295.797 184.27 290.07 176.767C288.074 174.114 286.645 171.079 285.872 167.852L285.882 167.87ZM325.808 122.406C326.07 125.685 325.858 128.985 325.178 132.203C321.905 131.237 318.469 130.949 315.08 131.358C305.364 132.603 297.367 139.804 293.837 150.325C293.75 150.583 293.664 150.841 293.579 151.099C293.837 151.161 294.119 151.217 294.387 151.271C305.279 153.481 315.522 150.165 321.46 142.384C323.509 139.659 324.978 136.545 325.777 133.232C328.91 134.254 331.879 135.721 334.593 137.589C334.716 137.672 334.838 137.764 334.962 137.847C327.959 142.962 321.347 150.838 315.281 161.282C303.169 161.259 293.058 159.46 285.185 155.935C286.065 147.368 289.562 137.723 295.596 127.238C307.688 127.214 317.825 125.433 325.765 121.939C325.767 122.089 325.785 122.239 325.798 122.388L325.808 122.406ZM324.982 133.002C324.213 136.222 322.789 139.25 320.799 141.897C315.072 149.4 305.178 152.604 294.635 150.498C298.08 140.327 305.805 133.374 315.176 132.172C318.467 131.776 321.805 132.058 324.982 133.002ZM325.677 121.086C317.804 124.61 307.69 126.407 295.58 126.431C289.515 115.989 282.902 108.113 275.9 102.995L276.269 102.737C278.983 100.871 281.952 99.4033 285.084 98.3801C285.883 101.694 287.352 104.81 289.401 107.535C295.34 115.314 305.583 118.621 316.474 116.42C316.732 116.365 317.011 116.311 317.282 116.249C317.2 115.992 317.115 115.734 317.024 115.476C313.495 104.954 305.498 97.7536 295.782 96.5083C292.393 96.0994 288.957 96.3862 285.683 97.3514C285.004 94.1327 284.792 90.8333 285.053 87.5543C285.066 87.4073 285.084 87.2552 285.095 87.1083C293.034 90.6017 303.169 92.3832 315.263 92.4064C321.3 102.858 324.794 112.503 325.677 121.073V121.086ZM285.872 98.1403C289.051 97.1971 292.391 96.9145 295.684 97.3101C305.054 98.5116 312.779 105.465 316.224 115.636C305.681 117.745 295.787 114.54 290.06 107.038C288.067 104.384 286.642 101.351 285.872 98.1248V98.1403ZM325.798 52.6767C326.059 55.9557 325.847 59.2551 325.168 62.4738C321.895 61.5078 318.458 61.22 315.07 61.6282C305.353 62.876 297.357 70.0743 293.827 80.5958C293.739 80.8536 293.654 81.1114 293.569 81.3693C293.827 81.4286 294.109 81.4853 294.377 81.5394C305.268 83.7489 315.511 80.4334 321.45 72.6524C323.499 69.9275 324.968 66.8128 325.767 63.4999C328.9 64.522 331.869 65.9894 334.582 67.857C334.706 67.9395 334.828 68.0324 334.951 68.1149C327.949 73.2325 321.336 81.1063 315.271 91.5505C303.159 91.5273 293.047 89.7277 285.175 86.2033C286.055 77.6361 289.551 67.9911 295.585 57.5056C307.677 57.4824 317.814 55.7009 325.754 52.2075C325.767 52.3622 325.785 52.5117 325.798 52.6613V52.6767ZM324.982 63.2782C324.213 66.4987 322.789 69.527 320.799 72.1755C315.072 79.6754 305.178 82.8801 294.635 80.7737C298.08 70.6028 305.805 63.6494 315.176 62.448C318.466 62.0465 321.804 62.3238 324.982 63.2627V63.2782ZM325.677 51.3618C317.804 54.8862 307.69 56.6858 295.58 56.7064C289.515 46.2648 282.902 38.3885 275.9 33.2708L276.269 33.013C278.983 31.1464 281.952 29.679 285.084 28.6558C285.883 31.9697 287.352 35.0854 289.401 37.811C295.34 45.5893 305.583 48.8971 316.474 46.6954C316.732 46.6412 317.011 46.5871 317.282 46.5252C317.2 46.2674 317.115 46.0096 317.024 45.7517C313.495 35.2302 305.498 28.0293 295.782 26.7841C292.393 26.3751 288.957 26.662 285.683 27.6271C285.004 24.4085 284.792 21.109 285.053 17.8301C285.066 17.6831 285.084 17.531 285.095 17.384C293.034 20.8775 303.169 22.659 315.263 22.6822C321.3 33.1341 324.794 42.7662 325.677 51.3464V51.3618ZM285.872 28.4161C289.051 27.4739 292.391 27.1913 295.684 27.5859C305.054 28.7873 312.779 35.7407 316.224 45.9116C305.681 48.0205 295.787 44.8159 290.06 37.3134C288.067 34.6593 286.642 31.6248 285.872 28.398V28.4161ZM315.274 21.8469C303.161 21.8237 293.05 20.0241 285.177 16.4997C286.058 7.93245 289.554 -1.71251 295.588 -12.1954C307.68 -12.2186 317.817 -14.0001 325.757 -17.4961C325.757 -17.3466 325.785 -17.1945 325.798 -17.0475C326.059 -13.7686 325.847 -10.4691 325.168 -7.25044C321.895 -8.21645 318.458 -8.50422 315.07 -8.09608C305.353 -6.84824 297.357 0.352608 293.827 10.8716C293.739 11.1294 293.654 11.3872 293.569 11.6579C293.827 11.7172 294.109 11.7739 294.377 11.8281C305.268 14.0376 315.511 10.722 321.45 2.94368C323.501 0.215521 324.971 -2.90269 325.77 -6.21917C328.902 -5.1971 331.871 -3.72965 334.585 -1.86205C334.709 -1.77955 334.83 -1.68674 334.954 -1.60423C327.952 3.51087 321.339 11.3846 315.274 21.8288V21.8469ZM324.982 -6.44605C324.213 -3.22558 322.789 -0.197235 320.799 2.45124C315.072 9.95116 305.178 13.1558 294.635 11.0495C298.08 0.878557 305.805 -6.07479 315.176 -7.27622C318.466 -7.67857 321.803 -7.40215 324.982 -6.4641V-6.44605ZM345.019 -19.9686C344.962 -19.5535 344.908 -19.1384 344.861 -18.7259L344.453 -18.9141C343.759 -19.2519 343.09 -19.6051 342.434 -19.9686H340.802C341.846 -19.3344 342.942 -18.7328 344.092 -18.1639C344.317 -18.0556 344.552 -17.9525 344.779 -17.8468C344.758 -17.5889 344.73 -17.344 344.712 -17.0939C344.463 -13.927 344.642 -10.741 345.243 -7.6217V-19.9866L345.019 -19.9686ZM275.19 252.614C275.001 252.818 274.818 253.024 274.637 253.228C269.23 259.336 266.586 266.635 267.059 273.65H267.883C267.41 266.856 269.948 259.782 275.19 253.842C280.418 259.771 282.967 266.856 282.494 273.65H283.318C283.793 266.629 281.149 259.336 275.742 253.228C275.559 253.024 275.378 252.818 275.19 252.614Z" fill="url(#paint0_linear_91_43)"/>
<defs>
<linearGradient id="paint0_linear_91_43" x1="-36.7712" y1="126.833" x2="345.249" y2="126.833" gradientUnits="userSpaceOnUse">
<stop offset="0.15" stop-color="#8C5728"/>
<stop offset="1" stop-color="#EA9A56"/>
</linearGradient>
</defs>
</svg>
