<svg width="17" height="15" viewBox="0 0 17 15" fill="none" xmlns="http://www.w3.org/2000/svg">
<path d="M9.29125 14.9586L0.260335 8.00475C0.178616 7.94189 0.113079 7.86418 0.0681626 7.77688C0.0232462 7.68958 3.31976e-07 7.59473 3.27781e-07 7.49877C3.23587e-07 7.4028 0.0232462 7.30795 0.0681626 7.22065C0.113079 7.13335 0.178616 7.05564 0.260334 6.99278L9.29125 0.0409821C9.31847 0.0199751 9.35193 0.00635419 9.38762 0.00174193C9.42332 -0.00287032 9.45976 0.0017204 9.4926 0.0149672C9.52544 0.028214 9.5533 0.0495587 9.57286 0.0764587C9.59241 0.103359 9.60285 0.13468 9.60291 0.166693L9.60291 1.86379C9.60291 1.96016 9.55569 2.05235 9.47305 2.1173L3.51619 6.70365L16.8111 6.70364C16.915 6.70364 17 6.77907 17 6.87126L17 8.12837C17 8.22055 16.915 8.29598 16.8111 8.29598L3.51619 8.29598L9.47305 12.8823C9.55569 12.9452 9.60291 13.0374 9.60291 13.1358L9.60291 14.8329C9.60291 14.9754 9.41403 15.0529 9.29125 14.9586Z" fill="white"/>
</svg>
