<svg width="17" height="15" viewBox="0 0 17 15" fill="none" xmlns="http://www.w3.org/2000/svg">
<path d="M7.70875 14.9586L16.7397 8.00475C16.8214 7.94189 16.8869 7.86418 16.9318 7.77688C16.9768 7.68958 17 7.59473 17 7.49877C17 7.4028 16.9768 7.30795 16.9318 7.22065C16.8869 7.13335 16.8214 7.05564 16.7397 6.99278L7.70875 0.0409821C7.68153 0.0199751 7.64807 0.00635419 7.61238 0.00174193C7.57668 -0.00287032 7.54024 0.0017204 7.5074 0.0149672C7.47456 0.028214 7.4467 0.0495587 7.42714 0.0764587C7.40759 0.103359 7.39715 0.13468 7.39709 0.166693L7.39709 1.86379C7.39709 1.96016 7.44431 2.05235 7.52695 2.1173L13.4838 6.70365L0.188881 6.70364C0.0849969 6.70364 -2.96323e-07 6.77907 -3.00352e-07 6.87126L-3.55302e-07 8.12837C-3.59332e-07 8.22055 0.0849968 8.29598 0.188881 8.29598L13.4838 8.29598L7.52695 12.8823C7.44431 12.9452 7.39709 13.0374 7.39709 13.1358L7.39709 14.8329C7.39709 14.9754 7.58597 15.0529 7.70875 14.9586Z" fill="white"/>
</svg>
