<svg width="21" height="21" viewBox="0 0 21 21" fill="none" xmlns="http://www.w3.org/2000/svg">
<path d="M12.25 7.00049H3.5C2.53488 7.00049 1.75 7.78536 1.75 8.75049V17.5005C1.75 18.4656 2.53488 19.2505 3.5 19.2505H12.25C13.2151 19.2505 14 18.4656 14 17.5005V8.75049C14 7.78536 13.2151 7.00049 12.25 7.00049Z" fill="white"/>
<path d="M17.5 1.75049H8.75C8.28587 1.75049 7.84075 1.93486 7.51256 2.26305C7.18437 2.59124 7 3.03636 7 3.50049V5.25049H14C14.4641 5.25049 14.9092 5.43486 15.2374 5.76305C15.5656 6.09124 15.75 6.53636 15.75 7.00049V14.0005H17.5C17.9641 14.0005 18.4092 13.8161 18.7374 13.4879C19.0656 13.1597 19.25 12.7146 19.25 12.2505V3.50049C19.25 3.03636 19.0656 2.59124 18.7374 2.26305C18.4092 1.93486 17.9641 1.75049 17.5 1.75049Z" fill="white"/>
</svg>
