<svg width="42" height="42" viewBox="0 0 42 42" fill="none" xmlns="http://www.w3.org/2000/svg">
<g clip-path="url(#clip0_131_217)">
<path d="M30.1328 12.0405L9.75591 19.9389C8.93591 20.3067 8.65856 21.0433 9.55772 21.4431L14.7853 23.1129L27.4249 15.261C28.115 14.7681 28.8215 14.8996 28.2135 15.4418L17.3579 25.3217L17.0169 29.5029C17.3327 30.1484 17.911 30.1514 18.2799 29.8306L21.2833 26.974L26.4271 30.8457C27.6218 31.5566 28.2719 31.0978 28.5289 29.7948L31.9028 13.7366C32.2531 12.1326 31.6557 11.4259 30.1328 12.0405Z" fill="url(#paint0_linear_131_217)"/>
</g>
<rect x="0.25" y="0.25" width="41.5" height="41.5" stroke="url(#paint1_linear_131_217)" stroke-width="0.5"/>
<defs>
<linearGradient id="paint0_linear_131_217" x1="9" y1="21.4994" x2="32" y2="21.4994" gradientUnits="userSpaceOnUse">
<stop stop-color="#353535"/>
<stop offset="1" stop-color="#868686"/>
</linearGradient>
<linearGradient id="paint1_linear_131_217" x1="0" y1="20.9986" x2="42" y2="20.9986" gradientUnits="userSpaceOnUse">
<stop stop-color="#353535"/>
<stop offset="1" stop-color="#868686"/>
</linearGradient>
<clipPath id="clip0_131_217">
<rect width="23" height="23" fill="white" transform="translate(9 10)"/>
</clipPath>
</defs>
</svg>
