<svg width="42" height="42" viewBox="0 0 42 42" fill="none" xmlns="http://www.w3.org/2000/svg">
<path d="M33 14.257C32.1174 14.628 31.157 14.895 30.1676 14.999C31.1948 14.4043 31.9639 13.4649 32.3308 12.357C31.367 12.9157 30.3111 13.3075 29.2101 13.515C28.7499 13.0355 28.1933 12.6536 27.575 12.393C26.9567 12.1323 26.2899 11.9986 25.6163 12C22.8906 12 20.6986 14.153 20.6986 16.795C20.6986 17.166 20.7447 17.537 20.8197 17.8939C16.7385 17.686 13.0985 15.786 10.6786 12.8769C10.2377 13.6108 10.0066 14.4465 10.0095 15.2969C10.0095 16.9608 10.8777 18.428 12.2015 19.2908C11.4214 19.2609 10.6594 19.0519 9.97777 18.6809V18.7399C9.97777 21.07 11.6679 23.0009 13.9206 23.445C13.4976 23.552 13.0625 23.6068 12.6255 23.608C12.3054 23.608 12.0025 23.5771 11.6968 23.5349C12.3198 25.4349 14.134 26.8149 16.2943 26.8599C14.6041 28.15 12.4871 28.9089 10.1883 28.9089C9.77587 28.9089 9.39514 28.8948 9 28.8499C11.1805 30.213 13.7677 31 16.5539 31C25.599 31 30.5484 23.6979 30.5484 17.3599C30.5484 17.1519 30.5484 16.9439 30.534 16.736C31.4915 16.053 32.3308 15.207 33 14.257Z" fill="url(#paint0_linear_131_210)"/>
<rect x="0.25" y="0.25" width="41.5" height="41.5" stroke="url(#paint1_linear_131_210)" stroke-width="0.5"/>
<defs>
<linearGradient id="paint0_linear_131_210" x1="9" y1="21.4994" x2="33" y2="21.4994" gradientUnits="userSpaceOnUse">
<stop stop-color="#353535"/>
<stop offset="1" stop-color="#868686"/>
</linearGradient>
<linearGradient id="paint1_linear_131_210" x1="0" y1="20.9986" x2="42" y2="20.9986" gradientUnits="userSpaceOnUse">
<stop stop-color="#353535"/>
<stop offset="1" stop-color="#868686"/>
</linearGradient>
</defs>
</svg>
