<svg width="194" height="37" viewBox="0 0 194 37" fill="none" xmlns="http://www.w3.org/2000/svg">
<path d="M56.5504 11.8222V7.46667C56.5504 6.84444 56.5205 6.34074 56.4607 5.95556C56.4308 5.57037 56.3411 5.28889 56.1917 5.11111C56.0422 4.9037 55.818 4.77037 55.5191 4.71111C55.2202 4.62222 54.8316 4.57778 54.3533 4.57778C53.8452 4.57778 53.4416 4.62222 53.1427 4.71111C52.8737 4.77037 52.6645 4.9037 52.515 5.11111C52.3655 5.28889 52.2609 5.57037 52.2011 5.95556C52.1712 6.34074 52.1563 6.84444 52.1563 7.46667V10.9333C52.1563 11.6444 52.231 12.1778 52.3805 12.5333C52.5299 12.8593 52.9036 13.2 53.5014 13.5556C54.0096 13.8815 54.6821 14.2519 55.5191 14.6667C56.386 15.0815 57.3275 15.6 58.3439 16.2222C59.0911 16.6963 59.689 17.1259 60.1373 17.5111C60.6156 17.8963 60.9594 18.3259 61.1686 18.8C61.4077 19.2741 61.5572 19.837 61.617 20.4889C61.7067 21.1407 61.7515 21.9556 61.7515 22.9333V28.5778C61.7515 30.2074 61.6469 31.5111 61.4376 32.4889C61.2583 33.4667 60.8996 34.2222 60.3615 34.7556C59.8235 35.2593 59.0762 35.5852 58.1197 35.7333C57.1631 35.9111 55.9226 36 54.3982 36C52.9335 36 51.7378 35.9111 50.8112 35.7333C49.8845 35.5852 49.1522 35.2593 48.6141 34.7556C48.0761 34.2519 47.7025 33.5111 47.4932 32.5333C47.284 31.5556 47.1793 30.237 47.1793 28.5778V21.6H52.2011V28.5778C52.2011 29.2 52.2161 29.7037 52.246 30.0889C52.3058 30.4444 52.4104 30.7259 52.5598 30.9333C52.7093 31.1407 52.9185 31.2889 53.1876 31.3778C53.4865 31.437 53.8751 31.4667 54.3533 31.4667C55.3099 31.4667 55.9077 31.2889 56.1468 30.9333C56.4158 30.5778 56.5504 29.7926 56.5504 28.5778V23.2889C56.5504 22.3407 56.4906 21.6593 56.371 21.2444C56.2514 20.8296 55.9077 20.4296 55.3398 20.0444C55.0408 19.837 54.6672 19.6148 54.2188 19.3778C53.7704 19.1111 53.2922 18.8444 52.784 18.5778C52.2759 18.2815 51.7528 17.9852 51.2147 17.6889C50.7066 17.3926 50.2432 17.1111 49.8248 16.8444C49.197 16.4296 48.6889 16.0444 48.3003 15.6889C47.9416 15.3037 47.6576 14.8889 47.4484 14.4444C47.269 14 47.1495 13.4963 47.0897 12.9333C47.0299 12.3704 47 11.6741 47 10.8444V7.46667C47 5.83704 47.0897 4.53333 47.269 3.55555C47.4783 2.57778 47.837 1.82222 48.3451 1.28889C48.8832 0.755555 49.6155 0.414814 50.5422 0.266666C51.4987 0.0888886 52.7392 0 54.2637 0C55.7881 0 57.0137 0.0888886 57.9403 0.266666C58.8968 0.414814 59.6441 0.755555 60.1822 1.28889C60.7202 1.82222 61.0789 2.57778 61.2583 3.55555C61.4675 4.53333 61.5721 5.83704 61.5721 7.46667V11.8222H56.5504Z" fill="url(#paint0_linear_72_29)"/>
<path d="M67.918 35.5556H63.3446V0.444444H67.918V35.5556Z" fill="url(#paint1_linear_72_29)"/>
<path d="M74.6202 5.06666H70.0916V0.444444H74.6202V5.06666ZM74.6202 35.5556H70.0916V8.93333H74.6202V35.5556Z" fill="url(#paint2_linear_72_29)"/>
<path d="M84.7706 18.8V14.6222C84.7706 13.8519 84.651 13.3481 84.4119 13.1111C84.1727 12.8741 83.6646 12.7556 82.8874 12.7556C82.0205 12.7556 81.4676 12.8741 81.2284 13.1111C81.0192 13.3481 80.9146 13.8519 80.9146 14.6222V29.9111C80.9146 30.6815 81.0341 31.2 81.2733 31.4667C81.5124 31.7037 82.0205 31.8222 82.7977 31.8222C83.6347 31.8222 84.1727 31.6889 84.4119 31.4222C84.651 31.1556 84.7706 30.6519 84.7706 29.9111V23.0222H88.9405V30.3556C88.9405 31.6 88.8508 32.6074 88.6714 33.3778C88.4921 34.1185 88.1633 34.6815 87.685 35.0667C87.2366 35.4519 86.6239 35.7037 85.8467 35.8222C85.0695 35.9407 84.0831 36 82.8874 36C81.5423 36 80.4512 35.9259 79.6143 35.7778C78.8072 35.6593 78.1645 35.4074 77.6863 35.0222C77.208 34.6074 76.8792 34.0296 76.6999 33.2889C76.5504 32.5481 76.4757 31.5704 76.4757 30.3556V14.1333C76.4757 12.9185 76.5653 11.9407 76.7447 11.2C76.924 10.4593 77.2379 9.8963 77.6863 9.51111C78.1346 9.0963 78.7624 8.82963 79.5694 8.71111C80.3765 8.56296 81.4078 8.48889 82.6632 8.48889C84.0083 8.48889 85.0844 8.56296 85.8915 8.71111C86.7285 8.82963 87.3711 9.0963 87.8195 9.51111C88.2679 9.92593 88.5668 10.5037 88.7163 11.2444C88.8657 11.9852 88.9405 12.9481 88.9405 14.1333V18.8H84.7706Z" fill="url(#paint3_linear_72_29)"/>
<path d="M94.7101 23.8222V30.0889C94.7101 30.9481 94.8147 31.5111 95.024 31.7778C95.2631 32.0148 95.8012 32.1333 96.6381 32.1333C97.4452 32.1333 97.9683 32.0148 98.2074 31.7778C98.4466 31.5111 98.5661 30.9481 98.5661 30.0889V26.4889H102.691V30.3556C102.691 31.6 102.601 32.6074 102.422 33.3778C102.273 34.1185 101.974 34.6815 101.525 35.0667C101.077 35.4519 100.449 35.7037 99.6422 35.8222C98.865 35.9407 97.8487 36 96.5933 36C95.278 36 94.202 35.9407 93.365 35.8222C92.528 35.7037 91.8704 35.4519 91.3921 35.0667C90.9438 34.6518 90.6299 34.0741 90.4506 33.3333C90.3011 32.5926 90.2264 31.6 90.2264 30.3556V14.1333C90.2264 12.8889 90.3011 11.8963 90.4506 11.1556C90.6299 10.4148 90.9438 9.85185 91.3921 9.46667C91.8704 9.05185 92.528 8.78518 93.365 8.66667C94.202 8.54815 95.278 8.48889 96.5933 8.48889C97.8487 8.48889 98.865 8.54815 99.6422 8.66667C100.449 8.78518 101.077 9.03704 101.525 9.42222C101.974 9.80741 102.273 10.3852 102.422 11.1556C102.601 11.8963 102.691 12.8889 102.691 14.1333V23.8222H94.7101ZM94.7101 20.1778H98.5661V14.4889C98.5661 13.6296 98.4466 13.0815 98.2074 12.8444C97.9683 12.6074 97.4452 12.4889 96.6381 12.4889C95.8012 12.4889 95.2631 12.6074 95.024 12.8444C94.8147 13.0815 94.7101 13.6296 94.7101 14.4889V20.1778Z" fill="url(#paint4_linear_72_29)"/>
<path d="M122.67 30.3556C122.67 31.6 122.58 32.5926 122.401 33.3333C122.221 34.0741 121.893 34.6518 121.414 35.0667C120.966 35.4519 120.323 35.7037 119.486 35.8222C118.649 35.9407 117.573 36 116.258 36C114.943 36 113.867 35.9407 113.03 35.8222C112.193 35.7037 111.535 35.4519 111.057 35.0667C110.579 34.6518 110.25 34.0741 110.07 33.3333C109.921 32.5926 109.846 31.6 109.846 30.3556V14.1333C109.846 12.8889 109.921 11.8963 110.07 11.1556C110.25 10.4148 110.579 9.85185 111.057 9.46667C111.535 9.05185 112.193 8.78518 113.03 8.66667C113.867 8.54815 114.943 8.48889 116.258 8.48889C117.573 8.48889 118.649 8.54815 119.486 8.66667C120.323 8.78518 120.966 9.05185 121.414 9.46667C121.893 9.85185 122.221 10.4148 122.401 11.1556C122.58 11.8963 122.67 12.8889 122.67 14.1333V30.3556ZM118.231 14.6222C118.231 13.8519 118.111 13.3481 117.872 13.1111C117.633 12.8741 117.125 12.7556 116.348 12.7556C115.481 12.7556 114.913 12.8741 114.644 13.1111C114.405 13.3481 114.285 13.8519 114.285 14.6222V29.9111C114.285 30.6815 114.405 31.2 114.644 31.4667C114.883 31.7037 115.421 31.8222 116.258 31.8222C117.125 31.8222 117.663 31.6889 117.872 31.4222C118.111 31.1556 118.231 30.6519 118.231 29.9111V14.6222Z" fill="url(#paint5_linear_72_29)"/>
<path d="M132.731 12.6222H129.324V35.5556H124.75V12.6222H123.091V8.93333H124.75V6.08889C124.75 4.13333 125.243 2.71111 126.23 1.82222C127.216 0.903703 128.89 0.444444 131.252 0.444444H132.686V3.82222H131.565C130.071 3.82222 129.324 4.65185 129.324 6.31111V8.93333H132.731V12.6222Z" fill="url(#paint6_linear_72_29)"/>
<path d="M150.763 4.71111H146.907V35.5556H141.75V4.71111H137.85V0.444444H150.763V4.71111Z" fill="url(#paint7_linear_72_29)"/>
<path d="M156.033 5.06666H151.505V0.444444H156.033V5.06666ZM156.033 35.5556H151.505V8.93333H156.033V35.5556Z" fill="url(#paint8_linear_72_29)"/>
<path d="M162.821 35.5556H158.247V8.93333H162.507V10.7111C162.836 10.0593 163.329 9.57037 163.987 9.24444C164.674 8.88889 165.631 8.71111 166.856 8.71111C167.962 8.71111 168.844 8.87407 169.502 9.2C170.189 9.52592 170.697 10.0889 171.026 10.8889C171.474 10.0593 172.057 9.4963 172.775 9.2C173.492 8.87407 174.404 8.71111 175.51 8.71111C176.377 8.71111 177.094 8.8 177.662 8.97778C178.26 9.15555 178.738 9.46667 179.097 9.91111C179.456 10.3259 179.71 10.8889 179.859 11.6C180.009 12.2815 180.083 13.1259 180.083 14.1333V35.5556H175.51V14.6222C175.51 13.9407 175.375 13.4667 175.106 13.2C174.867 12.9333 174.404 12.8 173.716 12.8C172.999 12.8 172.491 12.9185 172.192 13.1556C171.923 13.3926 171.684 13.7185 171.474 14.1333V35.5556H166.901V14.6222C166.901 13.9407 166.767 13.4667 166.498 13.2C166.258 12.9333 165.795 12.8 165.108 12.8C164.36 12.8 163.837 12.9333 163.538 13.2C163.239 13.437 163 13.763 162.821 14.1778V35.5556Z" fill="url(#paint9_linear_72_29)"/>
<path d="M186.019 23.8222V30.0889C186.019 30.9481 186.124 31.5111 186.333 31.7778C186.572 32.0148 187.11 32.1333 187.947 32.1333C188.754 32.1333 189.277 32.0148 189.516 31.7778C189.755 31.5111 189.875 30.9481 189.875 30.0889V26.4889H194V30.3556C194 31.6 193.91 32.6074 193.731 33.3778C193.582 34.1185 193.283 34.6815 192.834 35.0667C192.386 35.4519 191.758 35.7037 190.951 35.8222C190.174 35.9407 189.158 36 187.902 36C186.587 36 185.511 35.9407 184.674 35.8222C183.837 35.7037 183.179 35.4519 182.701 35.0667C182.253 34.6518 181.939 34.0741 181.759 33.3333C181.61 32.5926 181.535 31.6 181.535 30.3556V14.1333C181.535 12.8889 181.61 11.8963 181.759 11.1556C181.939 10.4148 182.253 9.85185 182.701 9.46667C183.179 9.05185 183.837 8.78518 184.674 8.66667C185.511 8.54815 186.587 8.48889 187.902 8.48889C189.158 8.48889 190.174 8.54815 190.951 8.66667C191.758 8.78518 192.386 9.03704 192.834 9.42222C193.283 9.80741 193.582 10.3852 193.731 11.1556C193.91 11.8963 194 12.8889 194 14.1333V23.8222H186.019ZM186.019 20.1778H189.875V14.4889C189.875 13.6296 189.755 13.0815 189.516 12.8444C189.277 12.6074 188.754 12.4889 187.947 12.4889C187.11 12.4889 186.572 12.6074 186.333 12.8444C186.124 13.0815 186.019 13.6296 186.019 14.4889V20.1778Z" fill="url(#paint10_linear_72_29)"/>
<path d="M37 6.80147V0H20.3029H16.754H0V6.80147H3.52123V3.59118H16.7394V6.80147H6.7716V20.35H10.4174H15.7686H26.7072V26.6618H20.2606V23.6147H16.7394V26.621V30.1855V33.4088H3.52123V10.0118H0V37H16.754H20.3029H37V10.0118H33.4788V33.4088H20.2606V30.1985H30.2284V16.8132H26.8085H17.5146H10.2928V10.3382H16.7394V13.6029H20.2606V10.3279V6.76338V3.59118H33.4788V6.80147H37Z" fill="#CAA969"/>
<path d="M6.77148 23.6147V30.1986H13.4889V26.6618H10.2927V23.6147H6.77148Z" fill="#CAA969"/>
<path d="M30.2284 13.766V6.80127H23.511V10.338H26.7072V13.766H30.2284Z" fill="#CAA969"/>
<defs>
<linearGradient id="paint0_linear_72_29" x1="70.0588" y1="-10.3105" x2="176.562" y2="40.4537" gradientUnits="userSpaceOnUse">
<stop stop-color="#F8F4F0"/>
<stop offset="1" stop-color="#C7B3A0"/>
</linearGradient>
<linearGradient id="paint1_linear_72_29" x1="70.0588" y1="-10.3105" x2="176.562" y2="40.4537" gradientUnits="userSpaceOnUse">
<stop stop-color="#F8F4F0"/>
<stop offset="1" stop-color="#C7B3A0"/>
</linearGradient>
<linearGradient id="paint2_linear_72_29" x1="70.0588" y1="-10.3105" x2="176.562" y2="40.4537" gradientUnits="userSpaceOnUse">
<stop stop-color="#F8F4F0"/>
<stop offset="1" stop-color="#C7B3A0"/>
</linearGradient>
<linearGradient id="paint3_linear_72_29" x1="70.0588" y1="-10.3105" x2="176.562" y2="40.4537" gradientUnits="userSpaceOnUse">
<stop stop-color="#F8F4F0"/>
<stop offset="1" stop-color="#C7B3A0"/>
</linearGradient>
<linearGradient id="paint4_linear_72_29" x1="70.0588" y1="-10.3105" x2="176.562" y2="40.4537" gradientUnits="userSpaceOnUse">
<stop stop-color="#F8F4F0"/>
<stop offset="1" stop-color="#C7B3A0"/>
</linearGradient>
<linearGradient id="paint5_linear_72_29" x1="70.0588" y1="-10.3105" x2="176.562" y2="40.4537" gradientUnits="userSpaceOnUse">
<stop stop-color="#F8F4F0"/>
<stop offset="1" stop-color="#C7B3A0"/>
</linearGradient>
<linearGradient id="paint6_linear_72_29" x1="70.0588" y1="-10.3105" x2="176.562" y2="40.4537" gradientUnits="userSpaceOnUse">
<stop stop-color="#F8F4F0"/>
<stop offset="1" stop-color="#C7B3A0"/>
</linearGradient>
<linearGradient id="paint7_linear_72_29" x1="70.0588" y1="-10.3105" x2="176.562" y2="40.4537" gradientUnits="userSpaceOnUse">
<stop stop-color="#F8F4F0"/>
<stop offset="1" stop-color="#C7B3A0"/>
</linearGradient>
<linearGradient id="paint8_linear_72_29" x1="70.0588" y1="-10.3105" x2="176.562" y2="40.4537" gradientUnits="userSpaceOnUse">
<stop stop-color="#F8F4F0"/>
<stop offset="1" stop-color="#C7B3A0"/>
</linearGradient>
<linearGradient id="paint9_linear_72_29" x1="70.0588" y1="-10.3105" x2="176.562" y2="40.4537" gradientUnits="userSpaceOnUse">
<stop stop-color="#F8F4F0"/>
<stop offset="1" stop-color="#C7B3A0"/>
</linearGradient>
<linearGradient id="paint10_linear_72_29" x1="70.0588" y1="-10.3105" x2="176.562" y2="40.4537" gradientUnits="userSpaceOnUse">
<stop stop-color="#F8F4F0"/>
<stop offset="1" stop-color="#C7B3A0"/>
</linearGradient>
</defs>
</svg>
