<svg width="41" height="41" viewBox="0 0 41 41" fill="none" xmlns="http://www.w3.org/2000/svg">
<path d="M41 7.53676V0H22.4978H18.5653H0V7.53676H3.9019V3.97941H18.549V7.53676H7.50366V22.55H11.5436H17.4733H29.5944V29.5441H22.451V26.1676H18.549V29.4989V33.4488V37.0206H3.9019V11.0941H0V41H18.5653H22.4978H41V11.0941H37.0981V37.0206H22.451V33.4632H33.4963V18.6309H29.7067H19.4081H11.4056V11.4559H18.549V15.0735H22.451V11.4444V7.49456V3.97941H37.0981V7.53676H41Z" fill="#CAA969"/>
<path d="M7.50391 26.1675V33.4631H14.9475V29.544H11.4058V26.1675H7.50391Z" fill="#CAA969"/>
<path d="M33.4964 15.2543V7.53662H26.0527V11.4557H29.5945V15.2543H33.4964Z" fill="#CAA969"/>
</svg>
