<svg width="42" height="42" viewBox="0 0 42 42" fill="none" xmlns="http://www.w3.org/2000/svg">
<g clip-path="url(#clip0_92_319)">
<path d="M29.1631 13.6792C27.5693 12.9604 25.861 12.4292 24.0745 12.1271C24.0586 12.124 24.0421 12.126 24.0274 12.1327C24.0127 12.1394 24.0004 12.1506 23.9922 12.1646C23.7735 12.549 23.5297 13.05 23.3589 13.4458C21.4642 13.1628 19.538 13.1628 17.6433 13.4458C17.453 13.0072 17.2384 12.5794 17.0006 12.1646C16.9925 12.1504 16.9803 12.139 16.9656 12.132C16.9509 12.1249 16.9344 12.1225 16.9183 12.125C15.1329 12.4271 13.4245 12.9583 11.8297 13.6781C11.816 13.6839 11.8044 13.6937 11.7964 13.7063C8.55473 18.4719 7.66619 23.1198 8.10265 27.7094C8.10386 27.7206 8.10735 27.7315 8.1129 27.7414C8.11846 27.7512 8.12595 27.7598 8.13494 27.7667C10.027 29.1442 12.1374 30.1936 14.3776 30.8708C14.3933 30.8757 14.41 30.8756 14.4256 30.8708C14.4412 30.866 14.455 30.8566 14.4651 30.8438C14.9472 30.199 15.3744 29.5151 15.7422 28.799C15.7473 28.7892 15.7503 28.7784 15.7509 28.7674C15.7514 28.7564 15.7496 28.7453 15.7456 28.7351C15.7415 28.7248 15.7353 28.7155 15.7274 28.7078C15.7194 28.7002 15.7099 28.6943 15.6995 28.6906C15.0266 28.4372 14.3746 28.1314 13.7495 27.7761C13.7383 27.7696 13.7288 27.7605 13.722 27.7496C13.7151 27.7386 13.7111 27.7261 13.7103 27.7132C13.7095 27.7003 13.7119 27.6874 13.7172 27.6756C13.7226 27.6639 13.7309 27.6536 13.7412 27.6458C13.8724 27.549 14.0037 27.4479 14.1287 27.3469C14.1399 27.3378 14.1535 27.332 14.1678 27.3302C14.1822 27.3283 14.1968 27.3305 14.2099 27.3365C18.3006 29.174 22.7308 29.174 26.7735 27.3365C26.7867 27.3302 26.8014 27.3277 26.816 27.3294C26.8305 27.331 26.8443 27.3367 26.8558 27.3458C26.9808 27.4479 27.111 27.549 27.2433 27.6458C27.2537 27.6535 27.2621 27.6636 27.2676 27.6752C27.2732 27.6869 27.2758 27.6997 27.2752 27.7126C27.2745 27.7255 27.2707 27.7381 27.2641 27.7491C27.2574 27.7602 27.2481 27.7695 27.237 27.7761C26.6141 28.1344 25.9662 28.4375 25.286 28.6896C25.2755 28.6934 25.266 28.6994 25.2581 28.7071C25.2501 28.7149 25.2439 28.7243 25.2399 28.7346C25.2358 28.745 25.234 28.7561 25.2346 28.7672C25.2352 28.7783 25.2382 28.7891 25.2433 28.799C25.6183 29.5146 26.0474 30.1958 26.5193 30.8427C26.5291 30.856 26.5428 30.8659 26.5585 30.8711C26.5741 30.8764 26.591 30.8766 26.6068 30.8719C28.8509 30.1965 30.9647 29.1467 32.8589 27.7667C32.8681 27.7602 32.8759 27.7519 32.8816 27.7422C32.8874 27.7325 32.891 27.7216 32.8922 27.7104C33.4131 22.4042 32.0193 17.7938 29.1954 13.7083C29.1884 13.6951 29.177 13.6847 29.1631 13.6792ZM16.3537 24.9146C15.1224 24.9146 14.1068 23.8011 14.1068 22.4354C14.1068 21.0688 15.1026 19.9563 16.3537 19.9563C17.6141 19.9563 18.6204 21.0781 18.6006 22.4354C18.6006 23.8021 17.6047 24.9146 16.3537 24.9146ZM24.661 24.9146C23.4287 24.9146 22.4141 23.8011 22.4141 22.4354C22.4141 21.0688 23.4089 19.9563 24.661 19.9563C25.9214 19.9563 26.9276 21.0781 26.9079 22.4354C26.9079 23.8021 25.9224 24.9146 24.661 24.9146Z" fill="url(#paint0_linear_92_319)"/>
</g>
<rect x="0.25" y="0.25" width="41.5" height="41.5" stroke="url(#paint1_linear_92_319)" stroke-width="0.5"/>
<defs>
<linearGradient id="paint0_linear_92_319" x1="11.9207" y1="6.75361" x2="33.6235" y2="10.1313" gradientUnits="userSpaceOnUse">
<stop stop-color="#F8F4F0"/>
<stop offset="1" stop-color="#C7B3A0"/>
</linearGradient>
<linearGradient id="paint1_linear_92_319" x1="6.58824" y1="-12.0289" x2="43.429" y2="-7.72853" gradientUnits="userSpaceOnUse">
<stop stop-color="#F8F4F0"/>
<stop offset="1" stop-color="#C7B3A0"/>
</linearGradient>
<clipPath id="clip0_92_319">
<rect width="25" height="25" fill="white" transform="translate(8 9)"/>
</clipPath>
</defs>
</svg>
