<svg width="42" height="42" viewBox="0 0 42 42" fill="none" xmlns="http://www.w3.org/2000/svg">
<g clip-path="url(#clip0_92_323)">
<path d="M30.1328 12.0403L9.75591 19.9388C8.93591 20.3066 8.65856 21.0432 9.55772 21.4429L14.7853 23.1128L27.4249 15.2609C28.115 14.768 28.8215 14.8994 28.2135 15.4417L17.3579 25.3216L17.0169 29.5027C17.3327 30.1483 17.911 30.1513 18.2799 29.8304L21.2833 26.9739L26.4271 30.8456C27.6218 31.5565 28.2719 31.0977 28.5289 29.7947L31.9028 13.7365C32.2531 12.1325 31.6557 11.4258 30.1328 12.0403Z" fill="url(#paint0_linear_92_323)"/>
</g>
<rect x="0.25" y="0.25" width="41.5" height="41.5" stroke="url(#paint1_linear_92_323)" stroke-width="0.5"/>
<defs>
<linearGradient id="paint0_linear_92_323" x1="12.6078" y1="6.2758" x2="32.6715" y2="9.0583" gradientUnits="userSpaceOnUse">
<stop stop-color="#F8F4F0"/>
<stop offset="1" stop-color="#C7B3A0"/>
</linearGradient>
<linearGradient id="paint1_linear_92_323" x1="6.58824" y1="-12.0289" x2="43.429" y2="-7.72853" gradientUnits="userSpaceOnUse">
<stop stop-color="#F8F4F0"/>
<stop offset="1" stop-color="#C7B3A0"/>
</linearGradient>
<clipPath id="clip0_92_323">
<rect width="23" height="23" fill="white" transform="translate(9 10)"/>
</clipPath>
</defs>
</svg>
