<svg width="17" height="15" viewBox="0 0 17 15" fill="none" xmlns="http://www.w3.org/2000/svg">
<path d="M9.10291 0.816948L0.565326 7.38899L0.565187 7.38909C0.538824 7.40937 0.522315 7.43084 0.512766 7.4494C0.503385 7.46764 0.5 7.48425 0.5 7.49877C0.5 7.51328 0.503385 7.52989 0.512766 7.54813C0.522314 7.56669 0.538823 7.58816 0.565187 7.60844L0.565384 7.60859L9.10291 14.1826L9.10291 13.2284L3.21116 8.69216L2.04718 7.79598L3.51619 7.79598L16.5 7.79598L16.5 7.20364L3.51619 7.20365L2.04718 7.20365L3.21116 6.30747L9.10291 1.77126L9.10291 0.816948Z" fill="white" stroke="url(#paint0_linear_91_458)"/>
<defs>
<linearGradient id="paint0_linear_91_458" x1="8.49945" y1="-3.71523e-07" x2="8.49945" y2="15" gradientUnits="userSpaceOnUse">
<stop stop-color="#353535"/>
<stop offset="1" stop-color="#868686"/>
</linearGradient>
</defs>
</svg>
