<svg width="17" height="15" viewBox="0 0 17 15" fill="none" xmlns="http://www.w3.org/2000/svg">
<path d="M7.89709 0.816948L16.4347 7.38899L16.4348 7.38909C16.4612 7.40937 16.4777 7.43084 16.4872 7.4494C16.4966 7.46764 16.5 7.48425 16.5 7.49877C16.5 7.51328 16.4966 7.52989 16.4872 7.54813C16.4777 7.56669 16.4612 7.58816 16.4348 7.60844L16.4346 7.60859L7.89709 14.1826L7.89709 13.2284L13.7888 8.69216L14.9528 7.79598L13.4838 7.79598L0.5 7.79598L0.5 7.20364L13.4838 7.20365L14.9528 7.20365L13.7888 6.30747L7.89709 1.77126L7.89709 0.816948Z" fill="white" stroke="url(#paint0_linear_91_455)"/>
<defs>
<linearGradient id="paint0_linear_91_455" x1="8.50055" y1="-3.71523e-07" x2="8.50055" y2="15" gradientUnits="userSpaceOnUse">
<stop stop-color="#353535"/>
<stop offset="1" stop-color="#868686"/>
</linearGradient>
</defs>
</svg>
